<?xml version="1.0" encoding="utf-8"?>
<!-- Generator: Adobe Illustrator 27.5.0, SVG Export Plug-In . SVG Version: 6.00 Build 0)  -->
<svg version="1.1" xmlns="http://www.w3.org/2000/svg" xmlns:xlink="http://www.w3.org/1999/xlink" x="0px" y="0px"
	 viewBox="0 0 500 500" style="enable-background:new 0 0 500 500;" xml:space="preserve">
<g id="Background_Complete">
	<g>
		<rect x="416.779" y="398.494" style="fill:#EBEBEB;" width="33.122" height="0.25"/>
		<rect x="322.527" y="401.208" style="fill:#EBEBEB;" width="8.693" height="0.25"/>
		<rect x="396.586" y="389.208" style="fill:#EBEBEB;" width="19.192" height="0.25"/>
		<rect x="52.459" y="390.888" style="fill:#EBEBEB;" width="43.193" height="0.25"/>
		<rect x="104.556" y="390.888" style="fill:#EBEBEB;" width="6.333" height="0.25"/>
		<rect x="131.471" y="395.111" style="fill:#EBEBEB;" width="93.676" height="0.25"/>
		<path style="fill:#EBEBEB;" d="M237.014,337.8H43.915c-3.147,0-5.708-2.561-5.708-5.708V60.66c0-3.147,2.561-5.708,5.708-5.708
			h193.099c3.146,0,5.707,2.561,5.707,5.708v271.432C242.721,335.239,240.16,337.8,237.014,337.8z M43.915,55.203
			c-3.01,0-5.458,2.448-5.458,5.458v271.432c0,3.01,2.448,5.458,5.458,5.458h193.099c3.009,0,5.457-2.448,5.457-5.458V60.66
			c0-3.009-2.448-5.458-5.457-5.458H43.915z"/>
		<path style="fill:#EBEBEB;" d="M453.31,54.953H260.212c-3.147,0-5.707,2.561-5.707,5.708v112.672v158.759
			c0,3.147,2.561,5.708,5.707,5.708H453.31c3.148,0,5.708-2.561,5.708-5.708V60.66C459.019,57.513,456.458,54.953,453.31,54.953z
			 M458.769,332.092c0,3.01-2.448,5.458-5.458,5.458H260.212c-3.009,0-5.457-2.448-5.457-5.458V60.66
			c0-3.009,2.448-5.458,5.457-5.458H453.31c3.01,0,5.458,2.448,5.458,5.458V332.092z"/>
		<rect y="382.398" style="fill:#EBEBEB;" width="500" height="0.25"/>
	</g>
	<g>
		<g>
			<g>
				<rect x="59.907" y="73.101" style="fill:#FAFAFA;" width="74.974" height="254.331"/>
				<g>
					<polygon style="fill:#F5F5F5;" points="123.716,73.101 119.336,73.101 93.186,327.432 97.566,327.432 					"/>
				</g>
				<rect x="59.427" y="69.876" style="fill:#EBEBEB;" width="76.229" height="3.45"/>
				<rect x="59.427" y="327.207" style="fill:#EBEBEB;" width="76.229" height="4.45"/>
				<g>
					<path style="fill:#F0F0F0;" d="M138.62,337.156H55.978V63.576h82.643V337.156z M62.278,330.856h70.043V69.876H62.278V330.856z"
						/>
				</g>
			</g>
			<g>
				<rect x="150.632" y="73.101" style="fill:#FAFAFA;" width="74.974" height="254.331"/>
				<g>
					<polygon style="fill:#F5F5F5;" points="204.811,73.101 180.908,73.101 154.758,327.432 178.661,327.432 					"/>
				</g>
				<rect x="150.153" y="69.876" style="fill:#EBEBEB;" width="76.229" height="3.45"/>
				<rect x="150.153" y="327.207" style="fill:#EBEBEB;" width="76.229" height="4.45"/>
				<g>
					<path style="fill:#F0F0F0;" d="M229.346,337.156h-82.643V63.576h82.643V337.156z M153.003,330.856h70.043V69.876h-70.043
						V330.856z"/>
				</g>
			</g>
		</g>
		<g>
			<rect x="241.358" y="73.101" style="fill:#FAFAFA;" width="74.974" height="254.331"/>
			<g>
				<polygon style="fill:#F5F5F5;" points="282.645,73.101 278.264,73.101 252.114,327.432 256.495,327.432 				"/>
			</g>
			<rect x="240.879" y="69.876" style="fill:#EBEBEB;" width="76.229" height="3.45"/>
			<rect x="240.879" y="327.207" style="fill:#EBEBEB;" width="76.229" height="4.45"/>
			<g>
				<path style="fill:#F0F0F0;" d="M320.072,337.156h-82.643V63.576h82.643V337.156z M243.729,330.856h70.043V69.876h-70.043
					V330.856z"/>
			</g>
		</g>
	</g>
	<g>
		<g>
			
				<rect x="351.84" y="125.054" transform="matrix(0.0052 -1 1 0.0052 219.1329 552.3433)" style="fill:#E0E0E0;" width="70.701" height="81.949"/>
			
				<rect x="346.436" y="117.451" transform="matrix(-1 -0.0052 0.0052 -1 774.165 250.1603)" style="fill:#E6E6E6;" width="81.949" height="13.228"/>
			<polygon style="fill:#F5F5F5;" points="343.642,199.171 425.59,199.601 428.35,130.894 346.402,130.464 			"/>
			<polygon style="fill:#EBEBEB;" points="364.625,147.442 405.191,147.655 405.677,135.563 365.111,135.35 			"/>
			<polygon style="fill:#E0E0E0;" points="411.393,163.309 422.227,163.366 422.662,152.534 411.828,152.477 			"/>
			<polygon style="fill:#E0E0E0;" points="396.023,163.229 406.857,163.286 407.293,152.453 396.458,152.396 			"/>
			<g>
				<polygon style="fill:#E0E0E0;" points="410.806,177.921 421.64,177.977 422.075,167.145 411.241,167.088 				"/>
			</g>
			<g>
				<polygon style="fill:#EBEBEB;" points="410.219,192.532 421.053,192.589 421.488,181.756 410.654,181.699 				"/>
			</g>
			<polygon style="fill:#E0E0E0;" points="395.436,177.84 406.27,177.897 406.706,167.064 395.871,167.008 			"/>
			<polygon style="fill:#E0E0E0;" points="380.066,177.759 390.901,177.816 391.336,166.984 380.501,166.927 			"/>
			<polygon style="fill:#E0E0E0;" points="364.696,177.679 375.531,177.736 375.966,166.903 365.132,166.846 			"/>
			<polygon style="fill:#E0E0E0;" points="349.326,177.598 360.161,177.655 360.596,166.822 349.762,166.766 			"/>
			<polygon style="fill:#EBEBEB;" points="394.849,192.451 405.683,192.508 406.118,181.676 395.284,181.619 			"/>
			<polygon style="fill:#EBEBEB;" points="379.479,192.371 390.314,192.427 390.749,181.595 379.914,181.538 			"/>
			<polygon style="fill:#E0E0E0;" points="364.109,192.29 374.944,192.347 375.379,181.514 364.544,181.458 			"/>
			<polygon style="fill:none;" points="380.653,163.148 391.487,163.205 391.923,152.372 381.088,152.316 			"/>
			<polygon style="fill:#EBEBEB;" points="380.653,163.148 391.487,163.205 391.923,152.372 381.088,152.316 			"/>
			<polygon style="fill:none;" points="365.283,163.068 376.118,163.124 376.553,152.292 365.718,152.235 			"/>
			<polygon style="fill:#EBEBEB;" points="365.283,163.068 376.118,163.124 376.553,152.292 365.718,152.235 			"/>
			<polygon style="fill:none;" points="349.913,162.987 360.748,163.044 361.183,152.211 350.349,152.154 			"/>
			<polygon style="fill:#EBEBEB;" points="349.913,162.987 360.748,163.044 361.183,152.211 350.349,152.154 			"/>
			<polygon style="fill:#E0E0E0;" points="348.74,192.209 359.574,192.266 360.009,181.434 349.175,181.377 			"/>
		</g>
		<path style="fill:#E6E6E6;" d="M387.19,113.845c-2.614,0-4.732,2.119-4.732,4.732c0,2.614,2.119,4.732,4.732,4.732
			c2.613,0,4.732-2.119,4.732-4.732C391.923,115.964,389.804,113.845,387.19,113.845z M387.19,122.17
			c-1.985,0-3.593-1.609-3.593-3.593c0-1.984,1.609-3.593,3.593-3.593c1.984,0,3.593,1.609,3.593,3.593
			C390.784,120.562,389.175,122.17,387.19,122.17z"/>
	</g>
</g>
<g id="Background_Simple" style="display:none;">
	<g style="display:inline;">
		<path style="fill:#407BFF;" d="M60.207,236.295c0-39.852,35.173-98.268,103.88-77.092c38.863,11.978,47.519,32.042,67.039,29.467
			c31.77-4.192,17.37-64.353,73.077-93.445c40.597-21.201,104.759,7.784,125.124,74.704c14.574,47.888,7.773,112.013-44.693,139.782
			c-47.803,25.301-86.372,1.984-114.646,6.996c-28.372,5.029-33.034,49.762-103.959,49.762
			C124.09,366.468,60.207,330.52,60.207,236.295z"/>
		<path style="opacity:0.9;fill:#FFFFFF;" d="M60.207,236.295c0-39.852,35.173-98.268,103.88-77.092
			c38.863,11.978,47.519,32.042,67.039,29.467c31.77-4.192,17.37-64.353,73.077-93.445c40.597-21.201,104.759,7.784,125.124,74.704
			c14.574,47.888,7.773,112.013-44.693,139.782c-47.803,25.301-86.372,1.984-114.646,6.996
			c-28.372,5.029-33.034,49.762-103.959,49.762C124.09,366.468,60.207,330.52,60.207,236.295z"/>
	</g>
</g>
<g id="Shadow">
	<ellipse id="_x3C_Path_x3E__1_" style="fill:#F5F5F5;" cx="245.178" cy="412.391" rx="193.889" ry="11.323"/>
</g>
<g id="Desk">
	<g>
		<path style="fill:#263238;" d="M316.36,321.499h58.311c0,0-13.123,2.964-22.474,4.278v5.326h-13.362v-5.326
			C329.483,324.462,316.36,321.499,316.36,321.499z"/>
		<g>
			<path style="fill:#263238;" d="M376.346,307.816c-4.501,0-6.752,0-11.252,0c1.281-9.373,1.278-14.168,0-23.541
				c4.501,0,6.751,0,11.253,0C377.625,293.648,377.625,298.443,376.346,307.816z"/>
		</g>
		<g>
			<rect x="336.859" y="331.103" style="fill:#263238;" width="17.315" height="39.384"/>
			<rect x="336.859" y="331.103" style="opacity:0.2;fill:#FFFFFF;" width="17.315" height="39.384"/>
		</g>
		<g>
			<path style="fill:#407BFF;" d="M395.123,286.973c-16.169,0-32.338,0-48.506,0c-5.702,0-9.665-4.829-8.811-10.513
				c2.323-17.499,3.556-34.749,3.723-52.409c-0.04-5.123,3.783-9.08,8.925-9.08c13.611,0,27.222,0,40.833,0
				c5.142,0,9.859,3.957,10.65,9.08c2.398,17.494,3.707,34.744,3.95,52.409C405.867,282.144,400.826,286.973,395.123,286.973z"/>
			<path style="fill:#407BFF;" d="M397.284,276.461c-0.243-17.665-1.552-34.915-3.95-52.409c-0.792-5.123-5.508-9.08-10.65-9.08
				c-10.743,0-21.487,0-32.231,0c-5.142,0-8.965,3.957-8.925,9.08c-0.167,17.66-1.4,34.91-3.723,52.409
				c-0.854,5.683,3.109,10.513,8.811,10.513c13.301,0,26.603,0,39.904,0C392.223,286.973,397.264,282.144,397.284,276.461z"/>
			<path style="opacity:0.5;fill:#FFFFFF;" d="M397.284,276.461c-0.243-17.665-1.552-34.915-3.95-52.409
				c-0.792-5.123-5.508-9.08-10.65-9.08c-10.743,0-21.487,0-32.231,0c-5.142,0-8.965,3.957-8.925,9.08
				c-0.167,17.66-1.4,34.91-3.723,52.409c-0.854,5.683,3.109,10.513,8.811,10.513c13.301,0,26.603,0,39.904,0
				C392.223,286.973,397.264,282.144,397.284,276.461z"/>
		</g>
		<path style="fill:#263238;" d="M374.672,375.99c0,0.924-0.851,1.612-1.754,1.415c-5.306-1.157-21.2-4.505-27.401-4.505
			c-6.201,0-22.095,3.348-27.401,4.505c-0.903,0.197-1.754-0.491-1.754-1.415l0,0c0-1.791,1.248-3.338,2.999-3.714
			c6.211-1.334,20.384-4.236,26.157-4.236c5.773,0,19.945,2.902,26.157,4.236C373.424,372.652,374.672,374.198,374.672,375.99
			L374.672,375.99z"/>
		<g>
			<path style="fill:#407BFF;" d="M316.36,373.06c-2.754,0-4.986,2.233-4.986,4.986c0,2.754,2.232,4.986,4.986,4.986
				c2.754,0,4.987-2.232,4.987-4.986C321.347,375.293,319.114,373.06,316.36,373.06z M316.36,380.747
				c-1.492,0-2.701-1.209-2.701-2.701c0-1.492,1.209-2.701,2.701-2.701c1.492,0,2.701,1.209,2.701,2.701
				C319.061,379.538,317.852,380.747,316.36,380.747z"/>
			<path style="fill:#407BFF;" d="M345.516,373.06c-2.754,0-4.986,2.233-4.986,4.986c0,2.754,2.232,4.986,4.986,4.986
				c2.754,0,4.987-2.232,4.987-4.986C350.502,375.293,348.27,373.06,345.516,373.06z M345.516,380.747
				c-1.491,0-2.701-1.209-2.701-2.701c0-1.492,1.209-2.701,2.701-2.701c1.492,0,2.701,1.209,2.701,2.701
				C348.217,379.538,347.008,380.747,345.516,380.747z"/>
			<path style="fill:#407BFF;" d="M374.066,373.06c-2.754,0-4.987,2.233-4.987,4.986c0,2.754,2.233,4.986,4.987,4.986
				c2.754,0,4.987-2.232,4.987-4.986C379.053,375.293,376.82,373.06,374.066,373.06z M374.066,380.747
				c-1.492,0-2.701-1.209-2.701-2.701c0-1.492,1.209-2.701,2.701-2.701s2.701,1.209,2.701,2.701
				C376.767,379.538,375.558,380.747,374.066,380.747z"/>
		</g>
		<path style="fill:#407BFF;" d="M360.281,307.075c-19.404,0.78-38.941,0.012-58.244-2.055c-3.974-0.426-7.19,2.394-7.19,6.378
			c0,0.381,0,0.571,0,0.952c0,3.983,3.216,7.621,7.19,8.046c19.303,2.067,38.84,2.836,58.244,2.055
			C360.281,316.3,360.281,313.225,360.281,307.075z"/>
		<g>
			<path style="opacity:0.5;fill:#FFFFFF;" d="M360.281,307.075c-19.404,0.78-38.941,0.012-58.244-2.055
				c-3.974-0.426-7.19,2.394-7.19,6.378c0,0.381,0,0.571,0,0.952c0,3.983,3.216,7.621,7.19,8.046
				c19.303,2.067,38.84,2.836,58.244,2.055C360.281,316.3,360.281,313.225,360.281,307.075z"/>
			<path style="fill:#407BFF;" d="M389.369,320.356c-11.122,1.042-22.086,1.776-33.248,2.224c-3.782,0.098-6.849-2.941-6.849-6.716
				c0-0.681,0-1.022,0-1.703c0-3.776,3.067-6.859,6.849-6.957c11.161-0.449,22.126-1.182,33.248-2.224
				c3.767-0.407,6.816,2.266,6.816,6.042c0,0.681,0,1.022,0,1.703C396.184,316.5,393.136,319.949,389.369,320.356z"/>
		</g>
	</g>
	<g>
		<g>
			<g>
				<polygon style="fill:#407BFF;" points="419.96,396.335 416.723,396.335 415.85,275.719 419.96,275.719 				"/>
				<polygon style="opacity:0.5;fill:#FFFFFF;" points="419.96,396.335 416.723,396.335 415.85,275.719 419.96,275.719 				"/>
			</g>
			<g>
				<polygon style="fill:#407BFF;" points="423.197,396.335 419.96,396.335 419.96,275.719 424.07,275.719 				"/>
				<polygon style="opacity:0.3;fill:#FFFFFF;" points="423.197,396.335 419.96,396.335 419.96,275.719 424.07,275.719 				"/>
			</g>
		</g>
		<g>
			<g>
				<polygon style="fill:#407BFF;" points="230.526,396.335 227.29,396.335 226.416,275.719 230.526,275.719 				"/>
				<polygon style="opacity:0.5;fill:#FFFFFF;" points="230.526,396.335 227.29,396.335 226.416,275.719 230.526,275.719 				"/>
			</g>
			<g>
				<polygon style="fill:#407BFF;" points="233.763,396.335 230.526,396.335 230.526,275.719 234.636,275.719 				"/>
				<polygon style="opacity:0.3;fill:#FFFFFF;" points="233.763,396.335 230.526,396.335 230.526,275.719 234.636,275.719 				"/>
			</g>
		</g>
		<rect x="193.452" y="267.844" style="fill:#263238;" width="190.729" height="7.875"/>
		<rect x="193.452" y="267.844" style="opacity:0.2;fill:#FFFFFF;" width="190.729" height="7.875"/>
		<g>
			<rect x="380.869" y="267.844" style="fill:#263238;" width="49.715" height="7.875"/>
			<rect x="380.869" y="267.844" style="opacity:0.5;" width="49.715" height="7.875"/>
		</g>
		<rect x="204.823" y="275.719" style="fill:#407BFF;" width="189.434" height="12.983"/>
		<g>
			<g>
				<defs>
					
						<rect id="XMLID_5_" x="394.257" y="275.719" transform="matrix(-1 -1.224647e-16 1.224647e-16 -1 814.2168 564.4206)" width="25.703" height="12.983"/>
				</defs>
				<use xlink:href="#XMLID_5_"  style="overflow:visible;fill:#407BFF;"/>
				<clipPath id="XMLID_00000016777512005779053940000000779961084866749830_">
					<use xlink:href="#XMLID_5_"  style="overflow:visible;"/>
				</clipPath>
				
					<rect x="394.257" y="275.719" transform="matrix(-1 -1.224647e-16 1.224647e-16 -1 814.2168 564.4206)" style="opacity:0.3;clip-path:url(#XMLID_00000016777512005779053940000000779961084866749830_);fill:#407BFF;" width="25.703" height="12.983"/>
			</g>
			<g style="opacity:0.3;">
				<defs>
					
						<rect id="XMLID_1_" x="394.257" y="275.719" transform="matrix(-1 -1.224647e-16 1.224647e-16 -1 814.2168 564.4206)" style="opacity:0.3;" width="25.703" height="12.983"/>
				</defs>
				<use xlink:href="#XMLID_1_"  style="overflow:visible;"/>
				<clipPath id="XMLID_00000001630625751357948420000011152805292307336075_">
					<use xlink:href="#XMLID_1_"  style="overflow:visible;"/>
				</clipPath>
				
					<rect x="394.257" y="275.719" transform="matrix(-1 -1.224647e-16 1.224647e-16 -1 814.2168 564.4206)" style="opacity:0.3;clip-path:url(#XMLID_00000001630625751357948420000011152805292307336075_);" width="25.703" height="12.983"/>
			</g>
		</g>
		<g>
			<g>
				<polygon style="fill:#407BFF;" points="204.823,404.335 201.587,404.335 200.713,275.719 204.823,275.719 				"/>
				<polygon style="opacity:0.5;fill:#FFFFFF;" points="204.823,404.335 201.587,404.335 200.713,275.719 204.823,275.719 				"/>
			</g>
			<g>
				<polygon style="fill:#407BFF;" points="208.06,404.335 204.823,404.335 204.823,275.719 208.934,275.719 				"/>
				<polygon style="opacity:0.3;fill:#FFFFFF;" points="208.06,404.335 204.823,404.335 204.823,275.719 208.934,275.719 				"/>
			</g>
		</g>
		<g>
			<g>
				<polygon style="fill:#407BFF;" points="394.257,404.335 391.02,404.335 390.147,275.719 394.257,275.719 				"/>
				<polygon style="opacity:0.5;fill:#FFFFFF;" points="394.257,404.335 391.02,404.335 390.147,275.719 394.257,275.719 				"/>
			</g>
			<g>
				<polygon style="fill:#407BFF;" points="397.494,404.335 394.257,404.335 394.257,275.719 398.367,275.719 				"/>
				<polygon style="opacity:0.3;fill:#FFFFFF;" points="397.494,404.335 394.257,404.335 394.257,275.719 398.367,275.719 				"/>
			</g>
		</g>
	</g>
	<g>
		<g>
			<g>
				<path style="fill:#263238;" d="M325.527,186.335h-5.743l4.242,60.668h5.743c0.952,0,1.669-0.771,1.603-1.723l-4.001-57.221
					C327.304,187.107,326.478,186.335,325.527,186.335z"/>
				<path style="opacity:0.3;fill:#FFFFFF;" d="M325.527,186.335h-5.743l4.242,60.668h5.743c0.952,0,1.669-0.771,1.603-1.723
					l-4.001-57.221C327.304,187.107,326.478,186.335,325.527,186.335z"/>
			</g>
			<path style="fill:#263238;" d="M326.473,247.003h-86.077c-0.952,0-1.777-0.771-1.844-1.723l-4.001-57.221
				c-0.067-0.952,0.651-1.723,1.603-1.723h86.077c0.952,0,1.777,0.772,1.844,1.723l4.001,57.221
				C328.142,246.232,327.425,247.003,326.473,247.003z"/>
			<path style="opacity:0.6;fill:#FFFFFF;" d="M326.473,247.003h-86.077c-0.952,0-1.777-0.771-1.844-1.723l-4.001-57.221
				c-0.067-0.952,0.651-1.723,1.603-1.723h86.077c0.952,0,1.777,0.772,1.844,1.723l4.001,57.221
				C328.142,246.232,327.425,247.003,326.473,247.003z"/>
			<path style="opacity:0.1;" d="M281.313,232.345c-12.73,0.296-40.918,14.658-40.918,14.658h86.077
				C326.473,247.003,294.91,232.029,281.313,232.345z"/>
		</g>
		<g>
			<path style="fill:#263238;" d="M292.482,235.723c-0.058-1.201-1.049-2.146-2.251-2.146h-15.414c-1.203,0-2.194,0.944-2.251,2.146
				l-1.545,32.122h23.007L292.482,235.723z"/>
			<path style="opacity:0.4;fill:#FFFFFF;" d="M292.482,235.723c-0.058-1.201-1.049-2.146-2.251-2.146h-15.414
				c-1.203,0-2.194,0.944-2.251,2.146l-1.545,32.122h23.007L292.482,235.723z"/>
			<path style="fill:#263238;" d="M294.217,235.723c-0.058-1.201-1.049-2.146-2.251-2.146h-1.735c1.203,0,2.194,0.944,2.251,2.146
				l1.545,32.122h1.735L294.217,235.723z"/>
		</g>
	</g>
	<g>
		<g>
			<g>
				<path style="fill:#263238;" d="M304.822,270.504h-2.475c-0.261,0-0.473-0.211-0.473-0.473v-2.617
					c0-0.261,0.212-0.473,0.473-0.473h1.777c0.214,0,0.401,0.144,0.457,0.351l0.698,2.617
					C305.359,270.21,305.133,270.504,304.822,270.504z"/>
				<path style="fill:#263238;" d="M308.242,270.504h-2.475c-0.261,0-0.473-0.211-0.473-0.473v-2.617
					c0-0.261,0.212-0.473,0.473-0.473h1.777c0.214,0,0.401,0.144,0.457,0.351l0.698,2.617
					C308.779,270.21,308.553,270.504,308.242,270.504z"/>
				<path style="fill:#263238;" d="M311.663,270.504h-2.475c-0.261,0-0.473-0.211-0.473-0.473v-2.617
					c0-0.261,0.211-0.473,0.473-0.473h1.777c0.214,0,0.401,0.144,0.457,0.351l0.698,2.617
					C312.199,270.21,311.973,270.504,311.663,270.504z"/>
				<path style="fill:#263238;" d="M315.083,270.504h-2.475c-0.261,0-0.473-0.211-0.473-0.473v-2.617
					c0-0.261,0.212-0.473,0.473-0.473h1.777c0.214,0,0.401,0.144,0.456,0.351l0.698,2.617
					C315.62,270.21,315.393,270.504,315.083,270.504z"/>
				<path style="fill:#263238;" d="M318.503,270.504h-2.475c-0.261,0-0.473-0.211-0.473-0.473v-2.617
					c0-0.261,0.212-0.473,0.473-0.473h1.777c0.214,0,0.401,0.144,0.457,0.351l0.698,2.617
					C319.04,270.21,318.814,270.504,318.503,270.504z"/>
				<path style="fill:#263238;" d="M321.923,270.504h-2.475c-0.261,0-0.472-0.211-0.472-0.473v-2.617
					c0-0.261,0.211-0.473,0.472-0.473h1.777c0.214,0,0.401,0.144,0.457,0.351l0.698,2.617
					C322.46,270.21,322.234,270.504,321.923,270.504z"/>
				<path style="fill:#263238;" d="M325.344,270.504h-2.475c-0.261,0-0.473-0.211-0.473-0.473v-2.617
					c0-0.261,0.212-0.473,0.473-0.473h1.777c0.214,0,0.401,0.144,0.457,0.351l0.698,2.617
					C325.88,270.21,325.654,270.504,325.344,270.504z"/>
				<path style="fill:#263238;" d="M328.764,270.504h-2.475c-0.261,0-0.473-0.211-0.473-0.473v-2.617
					c0-0.261,0.212-0.473,0.473-0.473h1.777c0.214,0,0.401,0.144,0.457,0.351l0.698,2.617
					C329.301,270.21,329.074,270.504,328.764,270.504z"/>
				<path style="fill:#263238;" d="M332.184,270.504h-2.475c-0.261,0-0.473-0.211-0.473-0.473v-2.617
					c0-0.261,0.212-0.473,0.473-0.473h1.777c0.214,0,0.401,0.144,0.456,0.351l0.698,2.617
					C332.721,270.21,332.495,270.504,332.184,270.504z"/>
				<path style="fill:#263238;" d="M335.604,270.504h-2.475c-0.261,0-0.473-0.211-0.473-0.473v-2.617
					c0-0.261,0.212-0.473,0.473-0.473h1.777c0.214,0,0.401,0.144,0.457,0.351l0.698,2.617
					C336.141,270.21,335.915,270.504,335.604,270.504z"/>
				<path style="fill:#263238;" d="M339.025,270.504h-2.475c-0.261,0-0.473-0.211-0.473-0.473v-2.617
					c0-0.261,0.211-0.473,0.473-0.473h1.777c0.214,0,0.401,0.144,0.457,0.351l0.698,2.617
					C339.561,270.21,339.335,270.504,339.025,270.504z"/>
				<path style="fill:#263238;" d="M342.445,270.504h-2.475c-0.261,0-0.473-0.211-0.473-0.473v-2.617
					c0-0.261,0.212-0.473,0.473-0.473h1.777c0.214,0,0.401,0.144,0.457,0.351l0.698,2.617
					C342.981,270.21,342.755,270.504,342.445,270.504z"/>
				<path style="fill:#263238;" d="M345.865,270.504h-2.475c-0.261,0-0.473-0.211-0.473-0.473v-2.617
					c0-0.261,0.212-0.473,0.473-0.473h1.777c0.214,0,0.401,0.144,0.457,0.351l0.698,2.617
					C346.402,270.21,346.176,270.504,345.865,270.504z"/>
				<path style="fill:#263238;" d="M349.285,270.504h-2.475c-0.261,0-0.473-0.211-0.473-0.473v-2.617
					c0-0.261,0.212-0.473,0.473-0.473h1.777c0.214,0,0.401,0.144,0.457,0.351l0.698,2.617
					C349.822,270.21,349.596,270.504,349.285,270.504z"/>
				<path style="fill:#263238;" d="M352.706,270.504h-2.475c-0.261,0-0.473-0.211-0.473-0.473v-2.617
					c0-0.261,0.212-0.473,0.473-0.473h1.777c0.214,0,0.401,0.144,0.457,0.351l0.698,2.617
					C353.242,270.21,353.016,270.504,352.706,270.504z"/>
			</g>
			<g style="opacity:0.8;">
				<path style="fill:#FFFFFF;" d="M304.822,270.504h-2.475c-0.261,0-0.473-0.211-0.473-0.473v-2.617
					c0-0.261,0.212-0.473,0.473-0.473h1.777c0.214,0,0.401,0.144,0.457,0.351l0.698,2.617
					C305.359,270.21,305.133,270.504,304.822,270.504z"/>
				<path style="fill:#FFFFFF;" d="M308.242,270.504h-2.475c-0.261,0-0.473-0.211-0.473-0.473v-2.617
					c0-0.261,0.212-0.473,0.473-0.473h1.777c0.214,0,0.401,0.144,0.457,0.351l0.698,2.617
					C308.779,270.21,308.553,270.504,308.242,270.504z"/>
				<path style="fill:#FFFFFF;" d="M311.663,270.504h-2.475c-0.261,0-0.473-0.211-0.473-0.473v-2.617
					c0-0.261,0.211-0.473,0.473-0.473h1.777c0.214,0,0.401,0.144,0.457,0.351l0.698,2.617
					C312.199,270.21,311.973,270.504,311.663,270.504z"/>
				<path style="fill:#FFFFFF;" d="M315.083,270.504h-2.475c-0.261,0-0.473-0.211-0.473-0.473v-2.617
					c0-0.261,0.212-0.473,0.473-0.473h1.777c0.214,0,0.401,0.144,0.456,0.351l0.698,2.617
					C315.62,270.21,315.393,270.504,315.083,270.504z"/>
				<path style="fill:#FFFFFF;" d="M318.503,270.504h-2.475c-0.261,0-0.473-0.211-0.473-0.473v-2.617
					c0-0.261,0.212-0.473,0.473-0.473h1.777c0.214,0,0.401,0.144,0.457,0.351l0.698,2.617
					C319.04,270.21,318.814,270.504,318.503,270.504z"/>
				<path style="fill:#FFFFFF;" d="M321.923,270.504h-2.475c-0.261,0-0.472-0.211-0.472-0.473v-2.617
					c0-0.261,0.211-0.473,0.472-0.473h1.777c0.214,0,0.401,0.144,0.457,0.351l0.698,2.617
					C322.46,270.21,322.234,270.504,321.923,270.504z"/>
				<path style="fill:#FFFFFF;" d="M325.344,270.504h-2.475c-0.261,0-0.473-0.211-0.473-0.473v-2.617
					c0-0.261,0.212-0.473,0.473-0.473h1.777c0.214,0,0.401,0.144,0.457,0.351l0.698,2.617
					C325.88,270.21,325.654,270.504,325.344,270.504z"/>
				<path style="fill:#FFFFFF;" d="M328.764,270.504h-2.475c-0.261,0-0.473-0.211-0.473-0.473v-2.617
					c0-0.261,0.212-0.473,0.473-0.473h1.777c0.214,0,0.401,0.144,0.457,0.351l0.698,2.617
					C329.301,270.21,329.074,270.504,328.764,270.504z"/>
				<path style="fill:#FFFFFF;" d="M332.184,270.504h-2.475c-0.261,0-0.473-0.211-0.473-0.473v-2.617
					c0-0.261,0.212-0.473,0.473-0.473h1.777c0.214,0,0.401,0.144,0.456,0.351l0.698,2.617
					C332.721,270.21,332.495,270.504,332.184,270.504z"/>
				<path style="fill:#FFFFFF;" d="M335.604,270.504h-2.475c-0.261,0-0.473-0.211-0.473-0.473v-2.617
					c0-0.261,0.212-0.473,0.473-0.473h1.777c0.214,0,0.401,0.144,0.457,0.351l0.698,2.617
					C336.141,270.21,335.915,270.504,335.604,270.504z"/>
				<path style="fill:#FFFFFF;" d="M339.025,270.504h-2.475c-0.261,0-0.473-0.211-0.473-0.473v-2.617
					c0-0.261,0.211-0.473,0.473-0.473h1.777c0.214,0,0.401,0.144,0.457,0.351l0.698,2.617
					C339.561,270.21,339.335,270.504,339.025,270.504z"/>
				<path style="fill:#FFFFFF;" d="M342.445,270.504h-2.475c-0.261,0-0.473-0.211-0.473-0.473v-2.617
					c0-0.261,0.212-0.473,0.473-0.473h1.777c0.214,0,0.401,0.144,0.457,0.351l0.698,2.617
					C342.981,270.21,342.755,270.504,342.445,270.504z"/>
				<path style="fill:#FFFFFF;" d="M345.865,270.504h-2.475c-0.261,0-0.473-0.211-0.473-0.473v-2.617
					c0-0.261,0.212-0.473,0.473-0.473h1.777c0.214,0,0.401,0.144,0.457,0.351l0.698,2.617
					C346.402,270.21,346.176,270.504,345.865,270.504z"/>
				<path style="fill:#FFFFFF;" d="M349.285,270.504h-2.475c-0.261,0-0.473-0.211-0.473-0.473v-2.617
					c0-0.261,0.212-0.473,0.473-0.473h1.777c0.214,0,0.401,0.144,0.457,0.351l0.698,2.617
					C349.822,270.21,349.596,270.504,349.285,270.504z"/>
				<path style="fill:#FFFFFF;" d="M352.706,270.504h-2.475c-0.261,0-0.473-0.211-0.473-0.473v-2.617
					c0-0.261,0.212-0.473,0.473-0.473h1.777c0.214,0,0.401,0.144,0.457,0.351l0.698,2.617
					C353.242,270.21,353.016,270.504,352.706,270.504z"/>
			</g>
		</g>
		<g>
			<rect x="299.858" y="268.723" style="fill:#263238;" width="55.338" height="4.121"/>
			<rect x="299.858" y="268.723" style="opacity:0.5;fill:#FFFFFF;" width="55.338" height="4.121"/>
		</g>
	</g>
</g>
<g id="Packing">
	<g>
		<g>
			<g>
				<g>
					<path style="fill:#407BFF;" d="M255.971,300.195v-5.726c-0.704,0-0.705-1.096,0-1.096c2.178,0,4.358-0.015,6.537-0.028v7.947
						c-2.179,0-4.358,0-6.537,0C255.267,301.292,255.265,300.195,255.971,300.195z"/>
					<path style="opacity:0.3;fill:#FFFFFF;" d="M255.971,300.195v-5.726c-0.704,0-0.705-1.096,0-1.096
						c2.178,0,4.358-0.015,6.537-0.028v7.947c-2.179,0-4.358,0-6.537,0C255.267,301.292,255.265,300.195,255.971,300.195z"/>
				</g>
				<rect x="255.971" y="294.47" style="fill:#407BFF;" width="5.078" height="5.718"/>
				<rect x="255.971" y="294.47" style="opacity:0.8;fill:#FFFFFF;" width="5.078" height="5.718"/>
			</g>
			<path style="fill:#407BFF;" d="M259.983,300.744h17.605c1.21,0,2.191-1.527,2.191-3.411c0-1.884-0.981-3.411-2.191-3.411h-17.605
				V300.744z"/>
			<path style="opacity:0.9;fill:#FFFFFF;" d="M259.983,300.744h17.605c1.21,0,2.191-1.527,2.191-3.411
				c0-1.884-0.981-3.411-2.191-3.411h-17.605V300.744z"/>
			<g>
				<g>
					<path style="fill:#407BFF;" d="M259.983,293.373c5.764,0,11.537-0.104,17.3,0c3.948,0.071,4.16,7.653,0.288,7.919
						c-2.699,0.186-5.476,0-8.18,0c-3.136,0-6.272,0-9.408,0c-0.704,0-0.705-1.096,0-1.096c5.463,0,10.926,0,16.389,0
						c1.264,0,2.169-0.014,2.657-1.508c0.423-1.293,0.29-3.932-1.441-4.217c-0.186-0.031-0.406,0-0.593,0c-2.978,0-5.957,0-8.936,0
						c-2.692,0-5.384,0-8.077,0C259.279,294.47,259.278,293.373,259.983,293.373L259.983,293.373z"/>
				</g>
			</g>
		</g>
		<g>
			<g>
				<g>
					<path style="fill:#407BFF;" d="M281.871,309.395v-7.177c0.883,0,0.884-1.374,0-1.374c-2.73,0-5.462-0.019-8.194-0.035v9.96
						c2.731,0,5.462,0,8.194,0C282.753,310.77,282.755,309.395,281.871,309.395z"/>
					<path style="opacity:0.3;fill:#FFFFFF;" d="M281.871,309.395v-7.177c0.883,0,0.884-1.374,0-1.374
						c-2.73,0-5.462-0.019-8.194-0.035v9.96c2.731,0,5.462,0,8.194,0C282.753,310.77,282.755,309.395,281.871,309.395z"/>
				</g>
				<rect x="275.506" y="302.219" style="fill:#407BFF;" width="6.365" height="7.167"/>
				<rect x="275.506" y="302.219" style="opacity:0.8;fill:#FFFFFF;" width="6.365" height="7.167"/>
			</g>
			<path style="fill:#407BFF;" d="M276.841,310.082h-22.066c-1.517,0-2.747-1.914-2.747-4.275c0-2.361,1.23-4.276,2.747-4.276
				h22.066V310.082z"/>
			<path style="opacity:0.9;fill:#FFFFFF;" d="M276.841,310.082h-22.066c-1.517,0-2.747-1.914-2.747-4.275
				c0-2.361,1.23-4.276,2.747-4.276h22.066V310.082z"/>
			<g>
				<g>
					<path style="fill:#407BFF;" d="M276.841,300.844c-7.224,0-14.46-0.131-21.683,0c-4.948,0.09-5.214,9.592-0.361,9.925
						c3.383,0.232,6.863,0,10.252,0c3.93,0,7.861,0,11.791,0c0.883,0,0.884-1.374,0-1.374c-6.847,0-13.694,0-20.541,0
						c-1.585,0-2.718-0.018-3.331-1.891c-0.53-1.621-0.363-4.928,1.806-5.286c0.234-0.038,0.509,0,0.743,0c3.733,0,7.466,0,11.199,0
						c3.374,0,6.749,0,10.123,0C277.724,302.219,277.725,300.844,276.841,300.844L276.841,300.844z"/>
				</g>
				<g style="opacity:0.3;">
					<path d="M276.841,300.844c-7.224,0-14.46-0.131-21.683,0c-4.948,0.09-5.214,9.592-0.361,9.925c3.383,0.232,6.863,0,10.252,0
						c3.93,0,7.861,0,11.791,0c0.883,0,0.884-1.374,0-1.374c-6.847,0-13.694,0-20.541,0c-1.585,0-2.718-0.018-3.331-1.891
						c-0.53-1.621-0.363-4.928,1.806-5.286c0.234-0.038,0.509,0,0.743,0c3.733,0,7.466,0,11.199,0c3.374,0,6.749,0,10.123,0
						C277.724,302.219,277.725,300.844,276.841,300.844L276.841,300.844z"/>
				</g>
			</g>
		</g>
		<g>
			<g>
				<rect x="241.443" y="306.82" style="fill:#407BFF;" width="35.627" height="35.695"/>
				<rect x="241.443" y="306.82" style="opacity:0.5;fill:#FFFFFF;" width="35.627" height="35.695"/>
			</g>
			<g>
				<rect x="277.07" y="306.82" style="fill:#407BFF;" width="21.884" height="35.695"/>
				<rect x="277.07" y="306.82" style="opacity:0.2;fill:#FFFFFF;" width="21.884" height="35.695"/>
			</g>
			<g>
				<polygon style="fill:#407BFF;" points="270.263,316.855 234.636,316.855 241.443,306.82 277.07,306.82 				"/>
				<polygon style="opacity:0.8;fill:#FFFFFF;" points="270.263,316.855 234.636,316.855 241.443,306.82 277.07,306.82 				"/>
			</g>
			<g>
				<polygon style="fill:#407BFF;" points="283.518,316.855 305.402,316.855 298.954,306.82 277.07,306.82 				"/>
				<polygon style="opacity:0.7;fill:#FFFFFF;" points="283.518,316.855 305.402,316.855 298.954,306.82 277.07,306.82 				"/>
			</g>
		</g>
		<g>
			<g>
				<rect x="219.636" y="342.515" style="fill:#407BFF;" width="59.832" height="59.946"/>
				<rect x="219.636" y="342.515" style="opacity:0.6;fill:#FFFFFF;" width="59.832" height="59.946"/>
			</g>
			<g>
				<rect x="279.468" y="342.515" style="fill:#407BFF;" width="36.752" height="59.946"/>
				<rect x="279.468" y="342.515" style="opacity:0.3;fill:#FFFFFF;" width="36.752" height="59.946"/>
			</g>
			<g>
				<polygon style="fill:#407BFF;" points="294.171,342.515 294.171,365.204 295.121,364.338 296.8,365.39 298.269,364.338 
					300.159,365.39 302.153,364.338 303.413,365.39 304.877,364.618 304.877,342.515 				"/>
				<polygon style="opacity:0.7;fill:#FFFFFF;" points="294.171,342.515 294.171,365.204 295.121,364.338 296.8,365.39 
					298.269,364.338 300.159,365.39 302.153,364.338 303.413,365.39 304.877,364.618 304.877,342.515 				"/>
			</g>
		</g>
	</g>
</g>
<g id="Character">
	<g>
		<g>
			<polygon style="fill:#FF8B7B;" points="183.951,379.645 190.665,400.147 183.183,403.431 173.771,385.468 			"/>
			<polygon style="opacity:0.2;" points="179.022,395.489 188.079,392.248 184.849,383.425 175.331,388.445 			"/>
		</g>
		<g>
			<path style="fill:#407BFF;" d="M178.009,404.51c-1.096,0.631-2.342,1.057-2.966,0.737c-0.339-0.2-0.531-0.608-0.482-1.017
				c0.014-0.35,0.151-0.675,0.382-0.909c1.223-1.27,5.266-1.113,5.448-1.106c0.102,0.004,0.195,0.076,0.231,0.18
				c0.035,0.104,0.009,0.216-0.065,0.285C179.764,403.371,178.911,403.984,178.009,404.51z M175.645,403.415
				c-0.135,0.074-0.257,0.17-0.365,0.283c-0.156,0.131-0.246,0.335-0.245,0.554c-0.01,0.376,0.113,0.484,0.211,0.529
				c0.727,0.406,2.953-0.855,4.469-2.02C178.311,402.699,176.933,402.922,175.645,403.415z"/>
			<path style="fill:#407BFF;" d="M180.521,402.696c-0.024,0.026-0.057,0.041-0.092,0.042c-1.326,0.091-4.502-0.781-4.861-1.941
				c-0.109-0.264-0.092-0.669,0.432-1.049c0.381-0.28,0.858-0.379,1.321-0.276c1.613,0.339,3.239,2.757,3.317,2.871
				c0.051,0.079,0.059,0.18,0.02,0.261C180.626,402.653,180.577,402.686,180.521,402.696z M176.352,400.083l-0.122,0.056
				c-0.347,0.243-0.288,0.416-0.274,0.481c0.276,0.664,2.483,1.485,3.942,1.565c-0.689-1.022-1.633-1.797-2.701-2.229
				C176.907,399.888,176.607,399.933,176.352,400.083L176.352,400.083z"/>
			<path style="fill:#263238;" d="M181.705,400.61c5.4-1.178,7.275-3.336,7.275-3.336l1.01-0.738
				c1.194,0.682,1.753,1.578,2.63,2.637c1.711,2.066,2.986,3.526,5.271,5.686l0,0c0.729,0.721-0.071,1.509-1.276,2.071
				c-0.102,0.047-3.934,2.755-8.567,5.434c-5.474,3.157-4.679,3.009-11.1,6.854c-3.878,2.316-6.875-2.682-5.388-3.858
				c6.762-5.273,7.818-8.578,9.061-12.965C180.922,401.536,180.86,400.795,181.705,400.61z"/>
		</g>
		<g>
			<g>
				<g>
					<path style="fill:#263238;" d="M167.702,146.47c0.574-1.2-0.567,0.148-0.591-0.493c0.01,0.276,0.693,1.03,0.827,1.391
						c0.748,2.027,1.451,4.032,2.015,6.124c1.865,6.913,3.152,13.992,4.4,21.038c2.786,15.724,5.041,31.546,7.135,47.376
						c0.487,3.679,0.967,7.36,1.418,11.043c0.239,1.95,3.335,1.974,3.093,0c-1.473-12.021-3.129-24.023-4.915-36.002
						c-1.446-9.698-2.979-19.388-4.805-29.021c-1.271-6.702-2.43-13.686-4.833-20.099c-0.958-2.557-4.156-7.635-6.413-2.919
						C164.176,146.695,166.842,148.266,167.702,146.47L167.702,146.47z"/>
				</g>
				<g>
					<polygon style="fill:#FF8B7B;" points="116.244,393.976 113.458,410.124 104.357,409.048 105.596,393.437 					"/>
					<g>
						<path style="fill:#407BFF;" d="M99.975,408.604c-1.178-0.144-2.37-0.509-2.698-1.063c-0.166-0.321-0.111-0.711,0.137-0.974
							c0.19-0.241,0.467-0.398,0.771-0.439c1.636-0.241,4.711,2.052,4.846,2.154c0.076,0.057,0.108,0.156,0.08,0.247
							c-0.03,0.09-0.11,0.153-0.204,0.162C101.93,408.747,100.949,408.719,99.975,408.604z M98.694,406.576
							c-0.145-0.02-0.292-0.019-0.436,0.003c-0.191,0.009-0.368,0.105-0.479,0.26c-0.201,0.259-0.159,0.401-0.104,0.485
							c0.364,0.671,2.753,0.978,4.543,0.976C101.162,407.508,99.967,406.923,98.694,406.576z"/>
						<path style="fill:#407BFF;" d="M102.873,408.683c-0.032,0.005-0.065-0.002-0.093-0.02c-1.072-0.641-3.098-2.975-2.765-4.016
							c0.055-0.254,0.286-0.543,0.912-0.529c0.457,0.007,0.891,0.201,1.203,0.536c1.086,1.14,1.026,3.727,1.024,3.848
							c-0.004,0.082-0.052,0.155-0.126,0.191C102.977,408.708,102.922,408.705,102.873,408.683z M101.025,404.561l-0.127-0.027
							c-0.408-0.015-0.454,0.144-0.478,0.2c-0.137,0.636,1.16,2.426,2.25,3.264c0.019-1.088-0.296-2.156-0.903-3.06
							C101.573,404.727,101.31,404.593,101.025,404.561L101.025,404.561z"/>
						<path style="fill:#263238;" d="M104.038,407.482l10.345,1.267c0.39,0.048,0.695,0.359,0.734,0.75l0.84,8.645
							c0.08,0.767-0.476,1.453-1.243,1.533c-0.098,0.01-0.198,0.01-0.296-0.001c-3.722-0.521-7.013-1.132-11.657-1.694
							c-5.479-0.669-4.17,0.156-10.623-0.54c-3.888-0.424-4.058-4.922-2.386-4.938c7.648-0.026,8.709-2.204,11.945-4.545
							C102.393,407.518,103.226,407.349,104.038,407.482z"/>
					</g>
					<polygon style="opacity:0.2;" points="114.46,404.315 115.598,397.72 105.313,397.006 104.803,403.428 					"/>
				</g>
				<path style="fill:#407BFF;" d="M138.825,144.34c0,0-12.874-0.918-16.934,8.876c-8.336,20.108-8.814,42.111-8.814,42.111
					l12.874,1.679L138.825,144.34z"/>
				<path style="opacity:0.2;" d="M126.133,155.217c0,0-3.353,9.751-5.732,34.514h5.732l2.659-27.421L126.133,155.217z"/>
				<path style="fill:#263238;" d="M128.431,218.042c-28.508,86.493-24.309,125.044-24.363,125.815l-0.914,53.804l14.441,1.268
					c0,0,10.061-48.131,9.112-72.112c-0.122-3.078,15.883-45.846,21.128-67.548c0,0,10.186-23.534,5.356-39.832
					C153.192,219.436,130.591,211.488,128.431,218.042z"/>
				<path style="opacity:0.5;" d="M138.825,244.805c0,0-4.193,22.577-1.508,49.525c2.256-8.981,8.588-22.904,10.519-35.062
					L138.825,244.805z"/>
				<path style="fill:#263238;" d="M137.177,231.428c0,0,3.929,48.985,9.784,89.831c2.908,20.291,26.288,68.532,26.288,68.532
					s1.447-0.401,8.707-2.164c7.97-1.936,4.311-1.093,4.311-1.093s-1.626-7.697-8.344-39.118
					c-1.881-8.797-7.546-18.535-8.112-26.853c-1.297-19.063-2.872-85.522-3.904-90.35
					C164.874,225.385,140.781,223.473,137.177,231.428z"/>
				<g>
					<polygon style="fill:#263238;" points="101.755,394.166 101.205,400.438 118.572,401.919 119.794,395.707 					"/>
					<polygon style="opacity:0.2;fill:#FFFFFF;" points="101.755,394.166 101.205,400.438 118.572,401.919 119.794,395.707 					"/>
				</g>
				<g>
					<polygon style="fill:#263238;" points="171.069,387.958 173.09,393.92 189.405,388.273 188.108,382.066 					"/>
					<polygon style="opacity:0.2;fill:#FFFFFF;" points="171.069,387.958 173.09,393.92 189.405,388.273 188.108,382.066 					"/>
				</g>
				<path style="fill:#407BFF;" d="M165.542,221.116l7.052-60.414c1.018-8.396-5.447-15.832-13.904-15.99l-19.865-0.372
					c-7.829-0.147-14.314,6.041-14.536,13.868l-1.651,60.483C122.637,218.691,134.949,227.085,165.542,221.116z"/>
				<path style="fill:#407BFF;" d="M171.317,229.284l1.276-68.582c1.018-8.396-5.447-15.832-13.904-15.99l-19.865-0.372
					c-7.829-0.147-14.314,6.041-14.536,13.868l-2.062,68.652C122.227,226.859,140.725,235.254,171.317,229.284z"/>
				<path style="opacity:0.2;" d="M172.593,160.702c0.07-0.575,0.097-1.144,0.098-1.708h-5.354l-3.623,2.434
					c0,0,4.144,14.485,8.466,21.393L172.593,160.702z"/>
				<g>
					<g>
						<path style="fill:#407BFF;" d="M145.486,162.449c0,0.514-0.417,0.931-0.93,0.931c-0.514,0-0.931-0.417-0.931-0.931
							c0-0.514,0.417-0.931,0.931-0.931C145.07,161.519,145.486,161.936,145.486,162.449z"/>
						<path style="fill:#407BFF;" d="M144.556,176.209c0,0.514-0.417,0.931-0.931,0.931c-0.514,0-0.931-0.417-0.931-0.931
							c0-0.514,0.417-0.93,0.931-0.93C144.139,175.278,144.556,175.695,144.556,176.209z"/>
					</g>
					<g style="opacity:0.6;">
						<path style="fill:#FFFFFF;" d="M145.486,162.449c0,0.514-0.417,0.931-0.93,0.931c-0.514,0-0.931-0.417-0.931-0.931
							c0-0.514,0.417-0.931,0.931-0.931C145.07,161.519,145.486,161.936,145.486,162.449z"/>
						<path style="fill:#FFFFFF;" d="M144.556,176.209c0,0.514-0.417,0.931-0.931,0.931c-0.514,0-0.931-0.417-0.931-0.931
							c0-0.514,0.417-0.93,0.931-0.93C144.139,175.278,144.556,175.695,144.556,176.209z"/>
					</g>
				</g>
				<g>
					<g>
						<path style="fill:#263238;" d="M140.687,103.13c0,0-6.68,2.272-3.999,7.928C139.369,116.714,140.687,103.13,140.687,103.13z"
							/>
						<path style="opacity:0.5;" d="M140.687,103.13c0,0-6.68,2.272-3.999,7.928C139.369,116.714,140.687,103.13,140.687,103.13z"/>
					</g>
					<path style="fill:#FF8B7B;" d="M138.996,144.655c-0.164,1.482-0.013,3.341,1.6,3.943c2.819,1.051,7.925,0.911,7.925,0.911
						s3.722-1.541,6.084-3.734c0.359-0.773,0.37-1.216,0.37-1.216c-3.788-3.494-2.883-11.317-1.931-16.654l-10.063,8.87
						C144.04,140.742,144.253,143.126,138.996,144.655z"/>
					<path style="opacity:0.2;enable-background:new    ;" d="M148.962,131.477l-5.913,5.296c0.274,0.958,0.461,1.938,0.559,2.929
						c2.281-0.362,5.821-2.355,6.268-4.837C149.857,133.677,149.543,132.513,148.962,131.477z"/>
					<path style="fill:#FF8B7B;" d="M159.619,119.037c-2.207,8.631-2.962,12.318-8.229,15.946
						c-7.926,5.468-18.039,0.857-18.456-8.248c-0.361-8.204,3.325-20.98,12.535-22.759c6.572-1.34,12.985,2.902,14.324,9.474
						C160.17,115.3,160.111,117.214,159.619,119.037z"/>
					<path style="fill:#FF5652;" d="M139.469,118.887c-0.949,1.5-2.098,2.863-3.416,4.051c0.639,0.66,1.533,1.01,2.45,0.961
						L139.469,118.887z"/>
					<path style="fill:#263238;" d="M141.836,127.42c-0.357-0.011-0.712-0.052-1.061-0.124c-0.114-0.017-0.193-0.124-0.176-0.238
						c0-0.003,0.001-0.005,0.001-0.007c0.03-0.114,0.143-0.185,0.258-0.162c1.785,0.379,3.644-0.112,5.009-1.322
						c0.081-0.085,0.216-0.087,0.301-0.006c0.085,0.081,0.087,0.216,0.005,0.301C144.998,126.946,143.433,127.508,141.836,127.42z"
						/>
					<path style="fill:#263238;" d="M149.296,117.115c-0.179,0.051-0.37-0.022-0.469-0.179c-0.9-1.071-2.206-1.718-3.604-1.785
						c-0.237-0.008-0.423-0.206-0.416-0.443c0.007-0.231,0.201-0.412,0.432-0.404c0.005,0,0.01,0,0.016,0.001
						c1.68,0.068,3.248,0.864,4.293,2.182c0.123,0.196,0.065,0.454-0.131,0.577l0,0C149.382,117.092,149.34,117.11,149.296,117.115z
						"/>
					<path style="fill:#263238;" d="M135.426,112.776c-0.149-0.042-0.265-0.159-0.307-0.308c-0.058-0.227,0.076-0.46,0.302-0.523
						c1.328-0.407,2.772-0.125,3.85,0.751c0.172,0.143,0.195,0.399,0.052,0.571c-0.007,0.008-0.015,0.017-0.022,0.025
						c-0.154,0.173-0.418,0.188-0.591,0.034c-0.002-0.001-0.003-0.003-0.005-0.004l0,0c-0.865-0.653-1.988-0.854-3.026-0.543
						C135.597,112.803,135.508,112.803,135.426,112.776z"/>
					<g>
						<path style="fill:#407BFF;" d="M139.218,143.744c0.41-0.143,0.85,0.147,0.86,0.581c0.037,1.539,0.797,4.507,6.117,4.507
							c5.579,0,7.674-3.265,8.331-4.722c0.16-0.356,0.593-0.483,0.925-0.28l1.439,0.881c0,0-0.45,5.94-4.887,8.317
							c-3.657,1.959-6.684-2.985-6.684-2.985s-3.368,5.518-6.289,2.254c-2.921-3.264-1.516-7.961-1.516-7.961L139.218,143.744z"/>
						<path style="opacity:0.6;fill:#FFFFFF;" d="M139.218,143.744c0.41-0.143,0.85,0.147,0.86,0.581
							c0.037,1.539,0.797,4.507,6.117,4.507c5.579,0,7.674-3.265,8.331-4.722c0.16-0.356,0.593-0.483,0.925-0.28l1.439,0.881
							c0,0-0.45,5.94-4.887,8.317c-3.657,1.959-6.684-2.985-6.684-2.985s-3.368,5.518-6.289,2.254
							c-2.921-3.264-1.516-7.961-1.516-7.961L139.218,143.744z"/>
					</g>
					<path style="fill:#263238;" d="M156.03,125.477c0,0-2.296-2.738-1.055-8.345c1.241-5.607-10.884-2.157-13.216-8.406
						c0,0,2.845,1.586,5.2,0.84c0,0-11.636-2.052-7.065-11.565c0,0,2.926,3.171,9.718,3.171c6.791,0,13.32,6.155,12.107,11.425
						C161.72,112.596,164.611,120.683,156.03,125.477z"/>
					<g>
						<path style="fill:#407BFF;" d="M159.388,122.087l-7.852-3.737l-21.229-6.435l-0.154,4.853
							c-0.028,0.893,0.546,1.693,1.401,1.952l3.53,1.07c0.855,0.259,1.777-0.088,2.249-0.846l0.861-1.383
							c0.472-0.758,1.394-1.105,2.249-0.846l0,0c0.855,0.259,1.429,1.059,1.4,1.952l-0.052,1.629
							c-0.028,0.893,0.546,1.693,1.401,1.952l3.53,1.07c0.855,0.259,1.777-0.088,2.249-0.846l1.602-2.573l7.977,3.121
							L159.388,122.087z"/>
						<path style="opacity:0.3;" d="M159.388,122.087l-7.852-3.737l-21.229-6.435l-0.154,4.853
							c-0.028,0.893,0.546,1.693,1.401,1.952l3.53,1.07c0.855,0.259,1.777-0.088,2.249-0.846l0.861-1.383
							c0.472-0.758,1.394-1.105,2.249-0.846l0,0c0.855,0.259,1.429,1.059,1.4,1.952l-0.052,1.629
							c-0.028,0.893,0.546,1.693,1.401,1.952l3.53,1.07c0.855,0.259,1.777-0.088,2.249-0.846l1.602-2.573l7.977,3.121
							L159.388,122.087z"/>
					</g>
					<path style="fill:#FF8B7B;" d="M160.706,126.208c-0.849,1.458-2.239,2.522-3.867,2.961c-2.173,0.55-3.216-1.405-2.574-3.443
						c0.594-1.828,2.43-4.32,4.593-4.007c1.564,0.277,2.607,1.77,2.33,3.334C161.114,125.468,160.949,125.862,160.706,126.208z"/>
				</g>
				<path style="fill:#407BFF;" d="M172.257,210.717c0,0-1.026,2.751,5.736,6.482c0,0,17.289-10.237,16.503-27.037
					c-0.787-16.8-13.029-45.124-35.806-45.45c0,0-1.43,8.674,8.681,21.375c7.034,8.836,13.281,16.229,13.84,25.183
					C181.77,200.224,172.257,210.717,172.257,210.717z"/>
				<g>
					<g>
						<path style="fill:#407BFF;" d="M181.636,264.48c2.183,0,3.952-1.769,3.952-3.952c0-1.31,0-30.135,0-31.445
							c0-2.183-1.77-3.952-3.952-3.952h-15.213c-2.183,0-3.952,1.769-3.952,3.952c0,1.236,0,30.209,0,31.445
							c0,2.183,1.77,3.952,3.952,3.952H181.636z"/>
					</g>
					<g>
						<path style="fill:#407BFF;" d="M170.375,229.083c0-2.183-1.77-3.952-3.952-3.952c-2.183,0-3.952,1.769-3.952,3.952
							c0,1.236,0,30.209,0,31.445c0,2.183,1.77,3.952,3.952,3.952c2.183,0,3.952-1.769,3.952-3.952
							C170.375,259.218,170.375,230.393,170.375,229.083z"/>
						<path style="opacity:0.2;" d="M170.375,229.083c0-2.183-1.77-3.952-3.952-3.952c-2.183,0-3.952,1.769-3.952,3.952
							c0,1.236,0,30.209,0,31.445c0,2.183,1.77,3.952,3.952,3.952c2.183,0,3.952-1.769,3.952-3.952
							C170.375,259.218,170.375,230.393,170.375,229.083z"/>
					</g>
					<g>
						<path style="fill:#407BFF;" d="M181.636,225.131h-15.213c2.183,0,3.952,1.769,3.952,3.952c0,0.384,0,3.143,0,6.873v3.11
							c0,2.268,1.839,4.107,4.107,4.107h6.999c2.268,0,4.107-1.839,4.107-4.107c0-1.089,0-2.13,0-3.11c0-3.73,0-6.489,0-6.873
							C185.588,226.9,183.819,225.131,181.636,225.131z"/>
						<path style="opacity:0.4;" d="M181.636,225.131h-15.213c2.183,0,3.952,1.769,3.952,3.952c0,0.384,0,3.143,0,6.873v3.11
							c0,2.268,1.839,4.107,4.107,4.107h6.999c2.268,0,4.107-1.839,4.107-4.107c0-1.089,0-2.13,0-3.11c0-3.73,0-6.489,0-6.873
							C185.588,226.9,183.819,225.131,181.636,225.131z"/>
					</g>
					<g>
						<path style="fill:#263238;" d="M174.482,243.173c-0.133,0-0.258-0.027-0.388-0.039v9.576c0,1.281,0.722,2.32,1.612,2.32
							c0.89,0,1.612-1.039,1.612-2.32v-9.536H174.482z"/>
						<path style="fill:#263238;" d="M181.481,243.173h-1.138v9.536c0,1.281,0.722,2.32,1.612,2.32c0.891,0,1.613-1.039,1.613-2.32
							v-10.124C182.954,242.95,182.246,243.173,181.481,243.173z"/>
					</g>
					<g>
						<path style="fill:#263238;" d="M176.737,235.956c-0.193,0-0.902,0-1.095,0c-0.891,0-1.612,1.038-1.612,2.32
							c0,1.281,0.722,2.32,1.612,2.32c0.193,0,0.902,0,1.095,0c0.891,0,1.612-1.039,1.612-2.32
							C178.35,236.995,177.628,235.956,176.737,235.956z"/>
						<path style="fill:#407BFF;" d="M178.35,238.276c0,1.281-0.722,2.32-1.612,2.32s-1.612-1.039-1.612-2.32s0.722-2.32,1.612-2.32
							S178.35,236.995,178.35,238.276z"/>
					</g>
					<g>
						<path style="fill:#263238;" d="M183.568,235.956c-0.193,0-0.902,0-1.095,0c-0.891,0-1.612,1.038-1.612,2.32
							c0,1.281,0.722,2.32,1.612,2.32c0.193,0,0.902,0,1.095,0c0.891,0,1.612-1.039,1.612-2.32
							C185.18,236.995,184.458,235.956,183.568,235.956z"/>
						<path style="fill:#407BFF;" d="M185.18,238.276c0,1.281-0.722,2.32-1.612,2.32c-0.891,0-1.612-1.039-1.612-2.32
							s0.722-2.32,1.612-2.32C184.458,235.956,185.18,236.995,185.18,238.276z"/>
					</g>
				</g>
				<g>
					<g>
						<path style="fill:#263238;" d="M167.955,234.152c-0.999-12.914-1.707-25.859-2.181-38.802
							c-0.355-9.705-0.589-19.429-0.341-29.139c0.165-6.44-0.127-14.05,2.424-20.11c0.771-1.832-2.221-2.632-2.982-0.822
							c-2.414,5.735-2.272,12.904-2.478,19.001c-0.337,9.982-0.107,19.985,0.244,29.963c0.469,13.313,1.194,26.628,2.221,39.91
							C165.014,236.124,168.109,236.14,167.955,234.152L167.955,234.152z"/>
					</g>
					<g style="opacity:0.3;">
						<path style="fill:#FFFFFF;" d="M167.955,234.152c-0.999-12.914-1.707-25.859-2.181-38.802
							c-0.355-9.705-0.589-19.429-0.341-29.139c0.165-6.44-0.127-14.05,2.424-20.11c0.771-1.832-2.221-2.632-2.982-0.822
							c-2.414,5.735-2.272,12.904-2.478,19.001c-0.337,9.982-0.107,19.985,0.244,29.963c0.469,13.313,1.194,26.628,2.221,39.91
							C165.014,236.124,168.109,236.14,167.955,234.152L167.955,234.152z"/>
					</g>
				</g>
				<g>
					<g>
						<g>
							<path style="fill:#263238;" d="M141.451,185.63l-0.475-0.025l0.519-9.767c0.243-4.572-3.266-8.476-7.839-8.719
								c-4.572-0.243-8.476,3.266-8.719,7.839l-0.519,9.767l-0.475-0.025c-0.963-0.051-1.785,0.688-1.836,1.651l-0.087,1.631
								l20.996,1.116l0.087-1.631C143.153,186.503,142.414,185.681,141.451,185.63z"/>
							<path style="opacity:0.3;fill:#FFFFFF;" d="M141.451,185.63l-0.475-0.025l0.519-9.767c0.243-4.572-3.266-8.476-7.839-8.719
								c-4.572-0.243-8.476,3.266-8.719,7.839l-0.519,9.767l-0.475-0.025c-0.963-0.051-1.785,0.688-1.836,1.651l-0.087,1.631
								l20.996,1.116l0.087-1.631C143.153,186.503,142.414,185.681,141.451,185.63z"/>
						</g>
						<g>
							<path style="fill:#407BFF;" d="M139.766,185.54l-0.475-0.025l0.519-9.767c0.243-4.572-3.266-8.476-7.839-8.719
								c-4.572-0.243-8.476,3.266-8.719,7.839l-0.519,9.767l-0.475-0.025c-0.963-0.051-1.785,0.688-1.837,1.651l-0.087,1.631
								l20.996,1.117l0.087-1.631C141.468,186.413,140.729,185.591,139.766,185.54z"/>
							<path style="opacity:0.3;" d="M139.766,185.54l-0.475-0.025l0.519-9.767c0.243-4.572-3.266-8.476-7.839-8.719
								c-4.572-0.243-8.476,3.266-8.719,7.839l-0.519,9.767l-0.475-0.025c-0.963-0.051-1.785,0.688-1.837,1.651l-0.087,1.631
								l20.996,1.117l0.087-1.631C141.468,186.413,140.729,185.591,139.766,185.54z"/>
						</g>
						<path style="fill:#407BFF;" d="M138.125,175.658c-0.194,3.642-3.303,6.437-6.945,6.244c-3.642-0.194-6.437-3.303-6.244-6.945
							c0.194-3.642,3.303-6.437,6.945-6.244C135.523,168.907,138.318,172.016,138.125,175.658z"/>
						<path style="opacity:0.8;fill:#FFFFFF;" d="M138.125,175.658c-0.194,3.642-3.303,6.437-6.945,6.244
							c-3.642-0.194-6.437-3.303-6.244-6.945c0.194-3.642,3.303-6.437,6.945-6.244C135.523,168.907,138.318,172.016,138.125,175.658
							z"/>
						<path style="fill:#407BFF;" d="M135.463,174.983c-1.124-0.06-2.248-0.12-3.372-0.179c0.08-1.499,0.159-2.997,0.239-4.495
							c0.036-0.685-1.028-0.743-1.064-0.057c-0.089,1.676-0.178,3.352-0.267,5.027c-0.015,0.288,0.215,0.545,0.504,0.561
							c1.301,0.069,2.603,0.138,3.904,0.208C136.091,176.084,136.149,175.02,135.463,174.983z"/>
					</g>
					<g>
						<g>
							<g>
								<path style="fill:#263238;" d="M153.538,188.163H140.01c-0.869,0-1.573-0.704-1.573-1.573v-0.474
									c0-1.327,1.076-2.402,2.402-2.402h11.87c1.327,0,2.402,1.076,2.402,2.402v0.474
									C155.111,187.459,154.407,188.163,153.538,188.163z"/>
								<path style="opacity:0.6;fill:#FFFFFF;" d="M153.538,188.163H140.01c-0.869,0-1.573-0.704-1.573-1.573v-0.474
									c0-1.327,1.076-2.402,2.402-2.402h11.87c1.327,0,2.402,1.076,2.402,2.402v0.474
									C155.111,187.459,154.407,188.163,153.538,188.163z"/>
							</g>
							<g>
								<g>
									<ellipse style="fill:#263238;" cx="152.26" cy="168.593" rx="2.78" ry="2.066"/>
									<ellipse style="opacity:0.5;fill:#FFFFFF;" cx="152.26" cy="168.593" rx="2.78" ry="2.066"/>
								</g>
								<g>
									<rect x="143.854" y="178.654" style="fill:#263238;" width="2.129" height="5.474"/>
									<rect x="143.854" y="178.654" style="opacity:0.6;fill:#FFFFFF;" width="2.129" height="5.474"/>
								</g>
								<g>
									<rect x="147.429" y="178.654" style="fill:#263238;" width="2.129" height="5.474"/>
									<rect x="147.429" y="178.654" style="opacity:0.6;fill:#FFFFFF;" width="2.129" height="5.474"/>
								</g>
								<g>
									<path style="fill:#263238;" d="M144.344,174.129c-0.118-0.365-0.524-0.546-0.872-0.386c-1.047,0.482-3.081,1.34-3.94,1.17
										c-0.575-0.114-0.907-0.944-2.087,0.544c-0.109,0.137-0.191,0.306-0.195,0.48c-0.017,0.782,0.611,1.421,1.389,1.421
										c0.651,0,0.919-0.599,1.344-1.055c0.598-0.64,2.748-1.13,3.88-1.351C144.238,174.879,144.462,174.494,144.344,174.129
										L144.344,174.129z"/>
									<path style="fill:#263238;" d="M156.104,175.456c-1.18-1.488-1.512-0.657-2.087-0.544c-0.859,0.17-2.893-0.688-3.94-1.17
										c-0.348-0.16-0.755,0.021-0.872,0.386l0,0c-0.118,0.365,0.106,0.75,0.483,0.823c1.131,0.221,3.282,0.711,3.88,1.351
										c0.425,0.455,0.693,1.055,1.344,1.055c0.778,0,1.406-0.639,1.389-1.421C156.295,175.762,156.212,175.593,156.104,175.456z"
										/>
								</g>
								<g style="opacity:0.4;">
									<path style="fill:#FFFFFF;" d="M144.344,174.129c-0.118-0.365-0.524-0.546-0.872-0.386c-1.047,0.482-3.081,1.34-3.94,1.17
										c-0.575-0.114-0.907-0.944-2.087,0.544c-0.109,0.137-0.191,0.306-0.195,0.48c-0.017,0.782,0.611,1.421,1.389,1.421
										c0.651,0,0.919-0.599,1.344-1.055c0.598-0.64,2.748-1.13,3.88-1.351C144.238,174.879,144.462,174.494,144.344,174.129
										L144.344,174.129z"/>
									<path style="fill:#FFFFFF;" d="M156.104,175.456c-1.18-1.488-1.512-0.657-2.087-0.544c-0.859,0.17-2.893-0.688-3.94-1.17
										c-0.348-0.16-0.755,0.021-0.872,0.386l0,0c-0.118,0.365,0.106,0.75,0.483,0.823c1.131,0.221,3.282,0.711,3.88,1.351
										c0.425,0.455,0.693,1.055,1.344,1.055c0.778,0,1.406-0.639,1.389-1.421C156.295,175.762,156.212,175.593,156.104,175.456z"
										/>
								</g>
								<g>
									<path style="fill:#263238;" d="M150.732,175.904c0,2.55-1.888,4.617-4.218,4.617s-4.218-2.067-4.218-4.617
										s1.888-3.135,4.218-3.135S150.732,173.354,150.732,175.904z"/>
									<path style="opacity:0.7;fill:#FFFFFF;" d="M150.732,175.904c0,2.55-1.888,4.617-4.218,4.617s-4.218-2.067-4.218-4.617
										s1.888-3.135,4.218-3.135S150.732,173.354,150.732,175.904z"/>
								</g>
								<g>
									<path style="fill:#263238;" d="M145.983,184.104c0,0.856-3.101,0.856-3.101,0c0-0.856,0.694-1.551,1.551-1.551
										C145.289,182.554,145.983,183.248,145.983,184.104z"/>
									<path style="opacity:0.7;fill:#FFFFFF;" d="M145.983,184.104c0,0.856-3.101,0.856-3.101,0c0-0.856,0.694-1.551,1.551-1.551
										C145.289,182.554,145.983,183.248,145.983,184.104z"/>
								</g>
								<g>
									<path style="fill:#263238;" d="M150.53,184.104c0,0.856-3.101,0.856-3.101,0c0-0.856,0.694-1.551,1.551-1.551
										S150.53,183.248,150.53,184.104z"/>
									<path style="opacity:0.7;fill:#FFFFFF;" d="M150.53,184.104c0,0.856-3.101,0.856-3.101,0c0-0.856,0.694-1.551,1.551-1.551
										S150.53,183.248,150.53,184.104z"/>
								</g>
								<g>
									<ellipse style="fill:#263238;" cx="140.768" cy="168.593" rx="2.78" ry="2.066"/>
									<ellipse style="opacity:0.5;fill:#FFFFFF;" cx="140.768" cy="168.593" rx="2.78" ry="2.066"/>
								</g>
								<g>
									<path style="fill:#263238;" d="M153.558,167.178c0,4.816-3.153,6.243-7.044,6.243s-7.044-1.426-7.044-6.243
										c0-4.816,3.153-6.243,7.044-6.243S153.558,162.362,153.558,167.178z"/>
									<path style="opacity:0.6;fill:#FFFFFF;" d="M153.558,167.178c0,4.816-3.153,6.243-7.044,6.243s-7.044-1.426-7.044-6.243
										c0-4.816,3.153-6.243,7.044-6.243S153.558,162.362,153.558,167.178z"/>
								</g>
							</g>
						</g>
						<g>
							<ellipse style="fill:#263238;" cx="143.679" cy="169.166" rx="0.578" ry="0.822"/>
							<ellipse style="fill:#263238;" cx="149.868" cy="169.166" rx="0.578" ry="0.822"/>
						</g>
					</g>
					<g>
						<g>
							<g>
								<path style="fill:#407BFF;" d="M116.952,178.068c-0.413-5.055-1.571-10.506-4.387-14.779
									c-0.139-0.211,0.171-0.454,0.311-0.242c2.853,4.329,4.049,9.852,4.467,14.969
									C117.363,178.267,116.973,178.321,116.952,178.068L116.952,178.068z"/>
							</g>
							<g style="opacity:0.2;">
								<path d="M116.952,178.068c-0.413-5.055-1.571-10.506-4.387-14.779c-0.139-0.211,0.171-0.454,0.311-0.242
									c2.853,4.329,4.049,9.852,4.467,14.969C117.363,178.267,116.973,178.321,116.952,178.068L116.952,178.068z"/>
							</g>
						</g>
						<g>
							<path style="fill:#407BFF;" d="M117.552,176.935c0,0-1.357-15.25,6.363-15.215c8.154,0.036-3.978,6.798-5.613,15.115
								L117.552,176.935z"/>
							<path style="opacity:0.6;fill:#FFFFFF;" d="M117.552,176.935c0,0-1.357-15.25,6.363-15.215
								c8.154,0.036-3.978,6.798-5.613,15.115L117.552,176.935z"/>
							<path style="fill:#407BFF;" d="M118.736,171.557c-0.023-0.042-0.028-0.093,0.004-0.151c0.016-0.03,0.045-0.048,0.063-0.076
								c0.144-0.452,0.305-0.896,0.476-1.339c-0.443-0.452-0.822-1-0.86-1.652c-0.014-0.244,0.364-0.297,0.378-0.051
								c0.03,0.505,0.302,0.946,0.636,1.314c0.255-0.626,0.537-1.239,0.846-1.84c-0.537-0.586-0.939-1.332-0.964-2.141
								c-0.007-0.243,0.371-0.296,0.378-0.051c0.022,0.686,0.339,1.306,0.772,1.822c0.316-0.59,0.66-1.164,1.026-1.722
								c-0.435-0.654-0.708-1.405-0.82-2.179c-0.035-0.243,0.343-0.294,0.379-0.051c0.095,0.655,0.327,1.291,0.672,1.861
								c0.791-1.156,1.687-2.234,2.679-3.202c0.176-0.171,0.408,0.131,0.235,0.301c-0.547,0.534-1.055,1.109-1.541,1.706
								c0.826-0.4,1.778-0.617,2.635-0.798c0.241-0.051,0.29,0.328,0.051,0.378c-1.069,0.225-2.337,0.515-3.235,1.194
								c-0.015,0.011-0.03,0.005-0.045,0.011c-0.201,0.271-0.403,0.538-0.591,0.818c0.003,0.081-0.04,0.144-0.11,0.178
								c-0.081,0.124-0.155,0.252-0.234,0.377c0.776-0.282,1.649-0.304,2.447-0.189c0.243,0.035,0.192,0.413-0.052,0.378
								c-0.907-0.13-1.915-0.096-2.736,0.367c-0.002,0.001-0.003-0.001-0.004,0c-0.178,0.304-0.347,0.611-0.511,0.924
								c0.001,0.056-0.022,0.107-0.071,0.141c-0.09,0.173-0.176,0.348-0.261,0.523c0.554-0.201,1.228-0.125,1.768,0.016
								c0.235,0.061,0.187,0.44-0.051,0.378c-0.594-0.154-1.529-0.32-2.006,0.219c-0.007,0.008-0.016,0.005-0.023,0.011
								c-0.262,0.587-0.494,1.186-0.705,1.792c0.356-0.203,0.772-0.324,1.149-0.401c0.241-0.049,0.29,0.33,0.051,0.378
								c-0.451,0.091-1.108,0.257-1.406,0.679c-0.559,1.775-0.914,3.604-1.005,5.423c-0.012,0.245-0.39,0.193-0.378-0.052
								C117.861,175.075,118.205,173.292,118.736,171.557z"/>
							<path style="opacity:0.2;" d="M118.736,171.557c-0.023-0.042-0.028-0.093,0.004-0.151c0.016-0.03,0.045-0.048,0.063-0.076
								c0.144-0.452,0.305-0.896,0.476-1.339c-0.443-0.452-0.822-1-0.86-1.652c-0.014-0.244,0.364-0.297,0.378-0.051
								c0.03,0.505,0.302,0.946,0.636,1.314c0.255-0.626,0.537-1.239,0.846-1.84c-0.537-0.586-0.939-1.332-0.964-2.141
								c-0.007-0.243,0.371-0.296,0.378-0.051c0.022,0.686,0.339,1.306,0.772,1.822c0.316-0.59,0.66-1.164,1.026-1.722
								c-0.435-0.654-0.708-1.405-0.82-2.179c-0.035-0.243,0.343-0.294,0.379-0.051c0.095,0.655,0.327,1.291,0.672,1.861
								c0.791-1.156,1.687-2.234,2.679-3.202c0.176-0.171,0.408,0.131,0.235,0.301c-0.547,0.534-1.055,1.109-1.541,1.706
								c0.826-0.4,1.778-0.617,2.635-0.798c0.241-0.051,0.29,0.328,0.051,0.378c-1.069,0.225-2.337,0.515-3.235,1.194
								c-0.015,0.011-0.03,0.005-0.045,0.011c-0.201,0.271-0.403,0.538-0.591,0.818c0.003,0.081-0.04,0.144-0.11,0.178
								c-0.081,0.124-0.155,0.252-0.234,0.377c0.776-0.282,1.649-0.304,2.447-0.189c0.243,0.035,0.192,0.413-0.052,0.378
								c-0.907-0.13-1.915-0.096-2.736,0.367c-0.002,0.001-0.003-0.001-0.004,0c-0.178,0.304-0.347,0.611-0.511,0.924
								c0.001,0.056-0.022,0.107-0.071,0.141c-0.09,0.173-0.176,0.348-0.261,0.523c0.554-0.201,1.228-0.125,1.768,0.016
								c0.235,0.061,0.187,0.44-0.051,0.378c-0.594-0.154-1.529-0.32-2.006,0.219c-0.007,0.008-0.016,0.005-0.023,0.011
								c-0.262,0.587-0.494,1.186-0.705,1.792c0.356-0.203,0.772-0.324,1.149-0.401c0.241-0.049,0.29,0.33,0.051,0.378
								c-0.451,0.091-1.108,0.257-1.406,0.679c-0.559,1.775-0.914,3.604-1.005,5.423c-0.012,0.245-0.39,0.193-0.378-0.052
								C117.861,175.075,118.205,173.292,118.736,171.557z"/>
						</g>
						<g>
							<path style="fill:#407BFF;" d="M116.378,177.117c0,0-2.359-13.124-8.837-11.324c-6.842,1.901,4.902,4.799,8.184,11.411
								L116.378,177.117z"/>
							<path style="opacity:0.4;fill:#FFFFFF;" d="M116.378,177.117c0,0-2.359-13.124-8.837-11.324
								c-6.842,1.901,4.902,4.799,8.184,11.411L116.378,177.117z"/>
							<path style="fill:#407BFF;" d="M114.149,172.87c0.009-0.041,0.002-0.085-0.038-0.126c-0.02-0.021-0.049-0.03-0.07-0.049
								c-0.224-0.347-0.462-0.683-0.707-1.016c0.268-0.481,0.461-1.029,0.344-1.586c-0.044-0.208-0.374-0.166-0.329,0.044
								c0.091,0.431-0.036,0.864-0.233,1.25c-0.358-0.467-0.736-0.917-1.133-1.352c0.316-0.615,0.483-1.334,0.319-2.02
								c-0.049-0.206-0.38-0.164-0.329,0.044c0.139,0.581,0.015,1.175-0.231,1.708c-0.401-0.423-0.821-0.826-1.257-1.211
								c0.215-0.65,0.272-1.343,0.189-2.019c-0.027-0.212-0.356-0.168-0.33,0.044c0.071,0.572,0.021,1.16-0.137,1.717
								c-0.93-0.79-1.93-1.49-2.985-2.076c-0.187-0.104-0.313,0.204-0.128,0.307c0.582,0.323,1.141,0.69,1.686,1.08
								c-0.786-0.147-1.635-0.111-2.397-0.066c-0.214,0.013-0.169,0.342,0.044,0.329c0.95-0.056,2.082-0.104,2.992,0.261
								c0.015,0.006,0.026-0.003,0.04-0.001c0.231,0.182,0.462,0.359,0.685,0.552c0.016,0.069,0.066,0.112,0.133,0.124
								c0.096,0.085,0.188,0.176,0.283,0.264c-0.716-0.059-1.455,0.123-2.1,0.403c-0.196,0.085-0.067,0.391,0.13,0.306
								c0.732-0.318,1.587-0.52,2.382-0.319c0.002,0,0.002-0.001,0.004-0.001c0.219,0.214,0.432,0.434,0.641,0.659
								c0.012,0.047,0.043,0.084,0.092,0.103c0.115,0.125,0.228,0.252,0.339,0.38c-0.512-0.042-1.06,0.177-1.482,0.419
								c-0.183,0.105-0.056,0.412,0.13,0.306c0.463-0.266,1.211-0.62,1.736-0.276c0.007,0.005,0.015,0.001,0.022,0.004
								c0.355,0.433,0.688,0.883,1.004,1.344c-0.346-0.089-0.723-0.095-1.057-0.073c-0.213,0.014-0.168,0.344,0.044,0.329
								c0.399-0.027,0.99-0.038,1.337,0.248c0.877,1.363,1.595,2.818,2.088,4.326c0.066,0.203,0.372,0.072,0.306-0.13
								C115.692,175.625,114.994,174.206,114.149,172.87z"/>
							<path style="opacity:0.2;" d="M114.149,172.87c0.009-0.041,0.002-0.085-0.038-0.126c-0.02-0.021-0.049-0.03-0.07-0.049
								c-0.224-0.347-0.462-0.683-0.707-1.016c0.268-0.481,0.461-1.029,0.344-1.586c-0.044-0.208-0.374-0.166-0.329,0.044
								c0.091,0.431-0.036,0.864-0.233,1.25c-0.358-0.467-0.736-0.917-1.133-1.352c0.316-0.615,0.483-1.334,0.319-2.02
								c-0.049-0.206-0.38-0.164-0.329,0.044c0.139,0.581,0.015,1.175-0.231,1.708c-0.401-0.423-0.821-0.826-1.257-1.211
								c0.215-0.65,0.272-1.343,0.189-2.019c-0.027-0.212-0.356-0.168-0.33,0.044c0.071,0.572,0.021,1.16-0.137,1.717
								c-0.93-0.79-1.93-1.49-2.985-2.076c-0.187-0.104-0.313,0.204-0.128,0.307c0.582,0.323,1.141,0.69,1.686,1.08
								c-0.786-0.147-1.635-0.111-2.397-0.066c-0.214,0.013-0.169,0.342,0.044,0.329c0.95-0.056,2.082-0.104,2.992,0.261
								c0.015,0.006,0.026-0.003,0.04-0.001c0.231,0.182,0.462,0.359,0.685,0.552c0.016,0.069,0.066,0.112,0.133,0.124
								c0.096,0.085,0.188,0.176,0.283,0.264c-0.716-0.059-1.455,0.123-2.1,0.403c-0.196,0.085-0.067,0.391,0.13,0.306
								c0.732-0.318,1.587-0.52,2.382-0.319c0.002,0,0.002-0.001,0.004-0.001c0.219,0.214,0.432,0.434,0.641,0.659
								c0.012,0.047,0.043,0.084,0.092,0.103c0.115,0.125,0.228,0.252,0.339,0.38c-0.512-0.042-1.06,0.177-1.482,0.419
								c-0.183,0.105-0.056,0.412,0.13,0.306c0.463-0.266,1.211-0.62,1.736-0.276c0.007,0.005,0.015,0.001,0.022,0.004
								c0.355,0.433,0.688,0.883,1.004,1.344c-0.346-0.089-0.723-0.095-1.057-0.073c-0.213,0.014-0.168,0.344,0.044,0.329
								c0.399-0.027,0.99-0.038,1.337,0.248c0.877,1.363,1.595,2.818,2.088,4.326c0.066,0.203,0.372,0.072,0.306-0.13
								C115.692,175.625,114.994,174.206,114.149,172.87z"/>
						</g>
						<g>
							<path style="fill:#263238;" d="M115.195,190.557l7.133-0.956c1.083-0.145,1.879-1.09,1.838-2.182l-0.388-10.323
								c-0.03-0.795-0.738-1.391-1.526-1.285l-10.616,1.423c-0.788,0.106-1.314,0.867-1.134,1.642l2.345,10.061
								C113.095,190,114.112,190.702,115.195,190.557z"/>
							<path style="opacity:0.5;fill:#FFFFFF;" d="M115.195,190.557l7.133-0.956c1.083-0.145,1.879-1.09,1.838-2.182l-0.388-10.323
								c-0.03-0.795-0.738-1.391-1.526-1.285l-10.616,1.423c-0.788,0.106-1.314,0.867-1.134,1.642l2.345,10.061
								C113.095,190,114.112,190.702,115.195,190.557z"/>
						</g>
						<g>
							<path style="fill:#407BFF;" d="M112.716,163.629c0.501-0.603,3.283-0.846,1.89-2.896c-1.393-2.05-2.514-3.308-2.26-3.88
								c0,0-1.621,0.476-1.215,2.575c0,0-1.343-0.855-2.268-0.441c0,0-0.132,0.97,0.267,1.993c0,0-1.734-0.945-2.556,0.06
								c0,0,2.111,1.382,2.98,3.013S111.849,164.673,112.716,163.629z"/>
							<path style="opacity:0.4;" d="M112.716,163.629c0.501-0.603,3.283-0.846,1.89-2.896c-1.393-2.05-2.514-3.308-2.26-3.88
								c0,0-1.621,0.476-1.215,2.575c0,0-1.343-0.855-2.268-0.441c0,0-0.132,0.97,0.267,1.993c0,0-1.734-0.945-2.556,0.06
								c0,0,2.111,1.382,2.98,3.013S111.849,164.673,112.716,163.629z"/>
						</g>
					</g>
					<g>
						<g>
							<rect x="110.979" y="187.632" style="fill:#407BFF;" width="35.627" height="35.627"/>
							<rect x="110.979" y="187.632" style="opacity:0.6;fill:#FFFFFF;" width="35.627" height="35.627"/>
						</g>
						<g>
							<rect x="146.606" y="187.632" style="fill:#407BFF;" width="21.884" height="35.627"/>
							<rect x="146.606" y="187.632" style="opacity:0.3;fill:#FFFFFF;" width="21.884" height="35.627"/>
						</g>
						<g>
							<polygon style="fill:#407BFF;" points="139.799,197.648 104.172,197.648 110.979,187.632 146.606,187.632 							"/>
							<polygon style="opacity:0.8;fill:#FFFFFF;" points="139.799,197.648 104.172,197.648 110.979,187.632 146.606,187.632 
															"/>
						</g>
						<g>
							<polygon style="fill:#407BFF;" points="153.053,197.648 174.937,197.648 168.49,187.632 146.606,187.632 							"/>
							<polygon style="opacity:0.7;fill:#FFFFFF;" points="153.053,197.648 174.937,197.648 168.49,187.632 146.606,187.632 							
								"/>
						</g>
					</g>
					<path style="fill:#FF8B7B;" d="M109.114,209.307l0.639-0.26c1.756-0.713,3.764,0.061,4.586,1.769l0.148,0.307
						c0.34,0.707,0.44,1.505,0.283,2.274l-1.176,5.772c-0.243,1.192-1.073,2.18-2.205,2.625l0,0
						c-1.383,0.543-2.897-0.407-3.009-1.888l-0.637-8.387C107.67,210.563,108.224,209.669,109.114,209.307z"/>
					<path style="fill:#FF8B7B;" d="M173.68,211.12l-3.661,3.654l-1.089-0.576c-0.797-0.421-1.772-0.078-2.154,0.739
						c-0.911,1.953-3.042,5.287-7.538,7.324c-1.209,0.548-1.205,2.302,0.013,2.832c0.757,0.329,1.647,0.608,2.649,0.733
						c3.362,0.42,5.041,2.099,7.559,0c2.518-2.099,4.057-6.715,4.057-6.715l4.53-3.303L173.68,211.12z"/>
					<g>
						<path style="fill:#407BFF;" d="M171.131,211.005c0,0,1.358,4.666,7.027,7.037l2.845-1.543c0,0-5.445-3.486-7.975-8.114
							L171.131,211.005z"/>
						<path style="opacity:0.6;fill:#FFFFFF;" d="M171.131,211.005c0,0,1.358,4.666,7.027,7.037l2.845-1.543
							c0,0-5.445-3.486-7.975-8.114L171.131,211.005z"/>
					</g>
					<g>
						<g>
							<path style="fill:#263238;" d="M165.179,136.692l-6.264,6.264l-1.823-4.458c-0.222-0.543-0.097-1.167,0.318-1.582
								l1.729-1.729c0.415-0.415,1.038-0.54,1.582-0.318L165.179,136.692z"/>
							<path style="opacity:0.2;fill:#FFFFFF;" d="M165.179,136.692l-6.264,6.264l-1.823-4.458
								c-0.222-0.543-0.097-1.167,0.318-1.582l1.729-1.729c0.415-0.415,1.038-0.54,1.582-0.318L165.179,136.692z"/>
						</g>
						<g>
							<path style="fill:#263238;" d="M158.354,186.042h-2.924v-37.149c0-0.722,0.585-1.307,1.306-1.307h0.312
								c0.722,0,1.306,0.585,1.306,1.307V186.042z"/>
							<path style="opacity:0.6;fill:#FFFFFF;" d="M158.354,186.042h-2.924v-37.149c0-0.722,0.585-1.307,1.306-1.307h0.312
								c0.722,0,1.306,0.585,1.306,1.307V186.042z"/>
						</g>
						<g>
							<path style="fill:#263238;" d="M146.549,187.636L146.549,187.636h20.685l0,0c0-1.684-1.365-3.05-3.05-3.05h-14.586
								C147.914,184.587,146.549,185.952,146.549,187.636z"/>
							<path style="opacity:0.2;fill:#FFFFFF;" d="M146.549,187.636L146.549,187.636h20.685l0,0c0-1.684-1.365-3.05-3.05-3.05
								h-14.586C147.914,184.587,146.549,185.952,146.549,187.636z"/>
						</g>
						<g>
							<path style="fill:#263238;" d="M162.146,145.689l-3.959,3.959c-0.618,0.618-1.621,0.618-2.239,0l-0.267-0.267
								c-0.618-0.618-0.618-1.621,0-2.239l3.959-3.959L162.146,145.689z"/>
							<path style="opacity:0.2;fill:#FFFFFF;" d="M162.146,145.689l-3.959,3.959c-0.618,0.618-1.621,0.618-2.239,0l-0.267-0.267
								c-0.618-0.618-0.618-1.621,0-2.239l3.959-3.959L162.146,145.689z"/>
						</g>
						<g>
							<path style="fill:#263238;" d="M157.957,148.176c0,0.444-0.36,0.803-0.803,0.803s-0.803-0.36-0.803-0.803
								s0.36-0.803,0.803-0.803S157.957,147.732,157.957,148.176z"/>
							<path style="opacity:0.8;fill:#FFFFFF;" d="M157.957,148.176c0,0.444-0.36,0.803-0.803,0.803s-0.803-0.36-0.803-0.803
								s0.36-0.803,0.803-0.803S157.957,147.732,157.957,148.176z"/>
						</g>
						<g>
							<path style="fill:#263238;" d="M172.053,142.905l-6.925,6.925l-7.506-7.506c-0.51-0.51-0.51-1.337,0-1.848l5.077-5.077
								c0.51-0.51,1.337-0.51,1.848,0L172.053,142.905z"/>
							<path style="opacity:0.6;fill:#FFFFFF;" d="M172.053,142.905l-6.925,6.925l-7.506-7.506c-0.51-0.51-0.51-1.337,0-1.848
								l5.077-5.077c0.51-0.51,1.337-0.51,1.848,0L172.053,142.905z"/>
						</g>
						<g>
							<g>
								<path style="fill:#407BFF;" d="M181.247,146.572l-12.453,12.453c-1.077,1.077-2.915,0.595-3.325-0.872l-2.598-9.301
									c-0.103-0.368,0.001-0.763,0.271-1.033l6.898-6.898c0.27-0.27,0.665-0.374,1.033-0.271l9.301,2.598
									C181.842,143.656,182.324,145.494,181.247,146.572z"/>
								<path style="opacity:0.6;fill:#FFFFFF;" d="M181.247,146.572l-12.453,12.453c-1.077,1.077-2.915,0.595-3.325-0.872
									l-2.598-9.301c-0.103-0.368,0.001-0.763,0.271-1.033l6.898-6.898c0.27-0.27,0.665-0.374,1.033-0.271l9.301,2.598
									C181.842,143.656,182.324,145.494,181.247,146.572z"/>
							</g>
							<path style="fill:#407BFF;" d="M169.787,146.689c-0.242-0.242-0.633-0.242-0.875,0s-0.242,0.633,0,0.875
								c0.147,0.147,3.133,3.133,3.28,3.28c0.242,0.242,0.633,0.242,0.875,0c0.242-0.242,0.242-0.633,0-0.875
								C172.935,149.837,169.919,146.822,169.787,146.689z"/>
							<path style="fill:#407BFF;" d="M166.914,149.561c-0.203-0.28-0.564-0.311-0.805-0.069s-0.273,0.664-0.069,0.944
								c0.124,0.17,2.637,3.629,2.761,3.8c0.203,0.28,0.564,0.311,0.805,0.069s0.273-0.664,0.069-0.944
								C169.564,153.208,167.026,149.715,166.914,149.561z"/>
							<path style="fill:#407BFF;" d="M171.785,144.691c-0.28-0.203-0.311-0.564-0.069-0.805c0.242-0.242,0.664-0.273,0.944-0.069
								c0.17,0.124,3.63,2.637,3.8,2.761c0.28,0.203,0.311,0.564,0.069,0.805s-0.664,0.273-0.944,0.069
								C175.431,147.34,171.938,144.803,171.785,144.691z"/>
						</g>
					</g>
				</g>
			</g>
		</g>
	</g>
</g>
</svg>
