<svg width="180" height="35" viewBox="0 0 208 40" fill="none" xmlns="http://www.w3.org/2000/svg">
<path d="M34.2862 0H1.71378C0.767284 0 0 0.815302 0 1.82103V38.179C0 39.1847 0.767284 40 1.71378 40H34.2862C35.2327 40 36 39.1847 36 38.179V1.82103C36 0.815302 35.2327 0 34.2862 0Z" fill="url(#paint0_linear_185_5)"/>
<path d="M49.0056 23.8743C49.2227 23.6572 49.4399 23.44 49.5884 23.2229C49.7313 23.0057 49.8056 22.7143 49.8056 22.5715V20.9772C49.297 20.76 48.7885 20.6172 48.2113 20.5429C47.6285 20.4686 47.0513 20.4 46.5427 20.4C45.4513 20.4 44.5827 20.6172 43.9313 21.0515C43.2799 21.4857 42.9142 22.0686 42.9142 22.8686C42.9142 23.2343 43.057 23.6686 43.2799 24.0286C43.497 24.3943 43.8627 24.68 44.297 24.8972C44.7313 25.1143 45.2399 25.2629 45.8227 25.2629C46.4056 25.2629 47.057 25.12 47.6399 24.8972C48.2227 24.6057 48.657 24.2458 49.017 23.88L49.0056 23.8743ZM38.697 23.1486C38.697 22.0572 38.9885 21.1143 39.6399 20.32C40.2913 19.52 41.0913 18.8686 42.1827 18.4343C43.2742 18 44.5027 17.7086 45.8856 17.7086C46.6113 17.7086 47.337 17.7829 47.9885 17.8515C48.7142 17.9943 49.297 18.1429 49.8742 18.36V17.56C49.8742 16.5429 49.5827 15.7429 48.9313 15.24C48.3484 14.7315 47.4056 14.44 46.1713 14.44C45.2285 14.44 44.3542 14.5829 43.5599 14.9486C42.7599 15.24 41.8913 15.7486 40.9485 16.3257L39.5713 13.4229C40.6627 12.6972 41.7484 12.1886 42.9827 11.7543C44.1427 11.3886 45.377 11.1715 46.6856 11.1715C49.0799 11.1715 50.9656 11.7543 52.3484 12.9143C53.7256 14.0743 54.3827 15.8172 54.3827 17.9943V23C54.3827 23.4343 54.457 23.8 54.5999 23.9429C54.7427 24.0858 55.0342 24.2343 55.3999 24.3086V28.0115C54.9656 28.0858 54.5999 28.1543 54.3084 28.1543C54.017 28.1543 53.7256 28.2286 53.5084 28.2286C52.6399 28.2286 51.9827 28.0115 51.5484 27.6458C51.1142 27.28 50.8227 26.7772 50.7484 26.1943L50.6742 25.3943C49.9484 26.3372 49.0056 27.0629 47.9885 27.5715C46.897 28.08 45.8113 28.2972 44.6513 28.2972C43.5599 28.2972 42.5484 28.08 41.6742 27.6458C40.8056 27.2115 40.0799 26.5543 39.6399 25.76C38.9885 25.0343 38.697 24.1657 38.697 23.1486Z" fill="black"/>
<path d="M64.3944 28.3772C62.943 28.3772 61.6344 28.16 60.3315 27.6515C59.023 27.2172 57.9372 26.4915 56.9944 25.5486L58.5887 22.6458C59.6058 23.4458 60.5487 24.0229 61.4915 24.3886C62.4344 24.7543 63.3772 24.9715 64.2515 24.9715C65.0515 24.9715 65.703 24.8286 66.1372 24.6058C66.5715 24.3143 66.7887 23.9543 66.7887 23.4457C66.7887 23.0857 66.6458 22.72 66.4287 22.5029C66.1372 22.2858 65.7772 22.1372 65.2687 21.92C64.7601 21.7772 64.1772 21.5543 63.4515 21.4115C62.2172 20.9772 61.2001 20.6115 60.3315 20.2515C59.463 19.8857 58.8801 19.3829 58.4458 18.8C58.0115 18.2172 57.7944 17.4915 57.7944 16.5486C57.7944 15.4572 58.0858 14.5143 58.663 13.72C59.2458 12.92 60.0401 12.2686 61.0572 11.8343C62.0744 11.4 63.2344 11.1829 64.6115 11.1829C65.7715 11.1829 66.9315 11.4 68.023 11.7657C69.1144 12.1257 70.0572 12.7086 71.0001 13.5086L69.183 16.4115C68.3144 15.76 67.5144 15.2515 66.7144 14.96C65.9144 14.6686 65.1887 14.5257 64.3944 14.5257C63.9601 14.5257 63.5944 14.6 63.2344 14.6686C62.8687 14.7429 62.583 14.96 62.2915 15.1772C62.0744 15.3943 61.9258 15.76 61.9258 16.1943C61.9258 16.5543 62.0687 16.8457 62.2915 17.0629C62.5087 17.28 62.8744 17.4972 63.2344 17.6457C63.6687 17.7886 64.1772 18.0115 64.903 18.1543C66.2115 18.52 67.3715 18.9543 68.3144 19.3143C69.2572 19.68 69.9087 20.1829 70.4172 20.84C70.8515 21.4229 71.143 22.2172 71.143 23.2343C71.143 24.8286 70.5601 26.1372 69.3258 27.08C68.0915 27.88 66.423 28.3886 64.3887 28.3886L64.3944 28.3772Z" fill="black"/>
<path d="M84.28 27.1429C83.8457 27.2857 83.4115 27.5029 82.9029 27.6514C82.3943 27.8686 81.8115 28.0172 81.2343 28.0857C80.6515 28.2286 80.0743 28.2286 79.4172 28.2286C78.6172 28.2286 77.8915 28.0857 77.24 27.7943C76.5886 27.5029 76.08 27.0686 75.6457 26.4857C75.2115 25.9029 75.0629 25.1086 75.0629 24.0914V14.8743H72.8857V11.4629H75.0629V6.09145H79.4915V11.4629H82.9772V14.8743H79.4915V22.64C79.4915 23.2229 79.6343 23.5829 80 23.8743C80.2915 24.0914 80.6515 24.2343 81.0915 24.2343C81.5315 24.2343 81.96 24.16 82.4 24.0172C82.8343 23.8743 83.2 23.7257 83.4172 23.6514L84.2857 27.1372L84.28 27.1429Z" fill="black"/>
<path d="M89.7258 18.36H98.143C98.0687 17.56 97.8515 16.9085 97.4173 16.3257C97.0515 15.7428 96.5487 15.3085 95.9658 14.9485C95.383 14.5885 94.6573 14.44 93.9315 14.44C93.2058 14.44 92.5544 14.5828 91.8973 14.9485C91.3144 15.3143 90.8058 15.7485 90.4458 16.3257C90.0858 16.9085 89.863 17.56 89.7201 18.36H89.7258ZM94.0058 28.3771C92.6287 28.3771 91.3944 28.16 90.303 27.7257C89.2115 27.2914 88.2687 26.6343 87.543 25.9085C86.743 25.1085 86.1658 24.24 85.8001 23.2228C85.3658 22.2057 85.1487 21.12 85.1487 20.0285C85.1487 18.4343 85.5087 16.9828 86.2401 15.6743C86.9658 14.3657 87.983 13.3543 89.2858 12.5543C90.5944 11.7543 92.1887 11.3943 94.0058 11.3943C95.823 11.3943 97.4173 11.76 98.7258 12.5543C100.034 13.3543 101.046 14.3714 101.703 15.6743C102.429 16.9828 102.72 18.36 102.72 19.8114V20.6114C102.72 20.9028 102.646 21.12 102.646 21.2628H89.8744C89.9487 22.0628 90.1658 22.7885 90.6001 23.3657C91.0344 23.9485 91.543 24.3828 92.1258 24.7428C92.7773 25.0343 93.4344 25.2514 94.0858 25.2514C94.8858 25.2514 95.6801 25.0343 96.4058 24.6C97.1315 24.1657 97.6401 23.6571 97.9315 22.9314L101.703 24.0228C101.269 24.8914 100.686 25.6171 99.9601 26.2743C99.2344 26.9257 98.2915 27.4343 97.2744 27.8C96.3315 28.1657 95.2401 28.3828 94.0058 28.3828V28.3771Z" fill="black"/>
<path d="M115.491 15.1657C114.183 15.1657 113.023 15.4572 112.006 15.8915C110.988 16.3257 110.263 17.0515 109.828 17.9257V28.0172H105.4V11.4686H109.463V14.8057C110.046 13.6457 110.84 12.7715 111.714 12.12C112.657 11.4686 113.6 11.1029 114.617 11.1029H115.486V15.1657H115.491Z" fill="black"/>
<path d="M117.811 16.4743C117.811 15.0972 118.028 13.7886 118.537 12.4114C119.046 11.1029 119.771 9.86859 120.714 8.78288C121.657 7.69145 122.817 6.82288 124.2 6.17145C125.577 5.52002 127.177 5.22859 128.92 5.22859C131.023 5.22859 132.84 5.66288 134.366 6.60574C135.891 7.54859 137.051 8.70859 137.777 10.16L134.223 12.6286C133.857 11.76 133.354 11.1029 132.771 10.5943C132.194 10.0857 131.537 9.79431 130.811 9.57716C130.086 9.36002 129.434 9.28573 128.777 9.28573C127.686 9.28573 126.743 9.50288 125.948 9.93716C125.148 10.3714 124.497 10.9543 123.988 11.6057C123.48 12.3314 123.046 13.0572 122.754 13.9257C122.463 14.7943 122.388 15.6686 122.388 16.5372C122.388 17.48 122.537 18.4229 122.897 19.3657C123.188 20.2343 123.623 21.0343 124.206 21.76C124.783 22.4857 125.44 22.9943 126.24 23.4286C127.04 23.8629 127.908 24.0114 128.926 24.0114C129.577 24.0114 130.303 23.8686 130.96 23.6457C131.686 23.4286 132.337 23.0629 132.92 22.5543C133.497 22.0457 134.006 21.3943 134.371 20.5943L138.148 22.7714C137.714 23.8629 136.988 24.8057 135.971 25.6C134.954 26.4 133.794 26.9772 132.56 27.4172C131.326 27.8514 130.017 28.0686 128.783 28.0686C127.183 28.0686 125.663 27.7086 124.354 27.0514C122.977 26.4 121.811 25.4572 120.868 24.3657C119.926 23.2743 119.126 21.9714 118.617 20.5943C118.108 19.36 117.817 17.9086 117.817 16.4572L117.811 16.4743Z" fill="black"/>
<path d="M150.474 23.8743C150.691 23.6572 150.909 23.44 151.051 23.2229C151.194 23.0057 151.269 22.7143 151.269 22.5715V20.9772C150.76 20.76 150.251 20.6172 149.669 20.5429C149.091 20.4686 148.509 20.4 148 20.4C146.909 20.4 146.04 20.6172 145.389 21.0515C144.737 21.4857 144.371 22.0686 144.371 22.8686C144.371 23.2343 144.514 23.6686 144.737 24.0286C144.954 24.3943 145.32 24.68 145.754 24.8972C146.189 25.1143 146.697 25.2629 147.28 25.2629C147.863 25.2629 148.514 25.12 149.097 24.8972C149.606 24.6057 150.114 24.2458 150.474 23.88V23.8743ZM140.166 23.1486C140.166 22.0572 140.457 21.1143 141.109 20.32C141.76 19.52 142.56 18.8686 143.651 18.4343C144.737 18 145.971 17.7086 147.354 17.7086C148.08 17.7086 148.806 17.7829 149.457 17.8515C150.183 17.9943 150.766 18.1429 151.343 18.36V17.56C151.343 16.5429 151.051 15.7429 150.4 15.24C149.817 14.7315 148.874 14.44 147.64 14.44C146.697 14.44 145.829 14.5829 145.029 14.9486C144.229 15.24 143.36 15.7486 142.417 16.3257L141.04 13.4229C142.131 12.6972 143.217 12.1886 144.451 11.7543C145.611 11.3886 146.846 11.1715 148.154 11.1715C150.549 11.1715 152.434 11.7543 153.817 12.9143C155.194 14.0743 155.851 15.8172 155.851 17.9943V23C155.851 23.4343 155.926 23.8 156.069 23.9429C156.211 24.0858 156.503 24.2343 156.869 24.3086V28.0115C156.434 28.0858 156.069 28.1543 155.777 28.1543C155.486 28.1543 155.2 28.2286 154.977 28.2286C154.109 28.2286 153.451 28.0115 153.017 27.6458C152.583 27.28 152.291 26.7772 152.217 26.1943L152.143 25.3943C151.417 26.3372 150.474 27.0629 149.457 27.5715C148.371 28.08 147.28 28.2972 146.12 28.2972C145.029 28.2972 144.017 28.08 143.143 27.6458C142.274 27.2115 141.543 26.5543 141.109 25.76C140.383 25.0343 140.166 24.1657 140.166 23.1486Z" fill="black"/>
<path d="M185.823 28.0115H181.32V18.7943C181.32 17.56 181.103 16.6172 180.669 16.0343C180.234 15.4515 179.652 15.1657 178.857 15.1657C178.063 15.1657 177.257 15.4572 176.606 16.1086C175.88 16.6915 175.372 17.4857 175.006 18.5029V28.0858H170.577V18.7943C170.577 17.4857 170.36 16.6172 169.926 16.0343C169.492 15.4515 168.909 15.1657 168.114 15.1657C167.32 15.1657 166.589 15.4572 165.863 16.0343C165.137 16.6115 164.629 17.4115 164.269 18.3543V27.9372H159.84V11.4629H163.829V14.5086C164.48 13.4915 165.28 12.6229 166.372 12.04C167.463 11.4572 168.623 11.1715 170.074 11.1715C171.526 11.1715 172.543 11.5315 173.343 12.1886C174.143 12.84 174.577 13.64 174.794 14.5829C175.446 13.4915 176.32 12.6229 177.337 12.04C178.354 11.4572 179.589 11.1715 180.892 11.1715C181.909 11.1715 182.777 11.3886 183.434 11.7543C184.086 12.1143 184.594 12.6229 184.96 13.28C185.326 13.9315 185.543 14.5886 185.686 15.3829C185.829 16.1086 185.903 16.9086 185.903 17.7029V28.0115H185.829H185.823Z" fill="black"/>
<path d="M198.16 24.5257C198.811 24.5257 199.394 24.3829 199.903 24.16C200.411 23.8686 200.846 23.5086 201.211 23.0686C201.571 22.6343 201.863 22.1257 202.08 21.5429C202.297 20.96 202.371 20.3829 202.371 19.7257C202.371 19.0686 202.229 18.4172 202.006 17.84C201.783 17.2629 201.497 16.7486 201.063 16.3143C200.629 15.88 200.194 15.5143 199.611 15.2972C199.103 15.08 198.451 14.9315 197.869 14.9315C197.434 14.9315 197.069 15.0057 196.709 15.1486C196.343 15.2915 195.909 15.44 195.549 15.7315C195.183 15.9486 194.823 16.24 194.606 16.5315C194.314 16.8229 194.097 17.1829 194.029 17.5486V21.32C194.32 21.9029 194.606 22.4115 195.046 22.9143C195.48 23.4229 195.989 23.7829 196.497 24.0743C197.006 24.44 197.589 24.5086 198.166 24.5086L198.16 24.5257ZM199.686 28.3715C198.377 28.3715 197.217 28.08 196.274 27.5029C195.331 26.92 194.531 26.1943 194.023 25.2515V35.3429H189.594V11.6115H193.514V14.44C194.091 13.4972 194.891 12.6972 195.909 12.1886C196.851 11.6057 198.011 11.3886 199.246 11.3886C200.406 11.3886 201.423 11.6057 202.366 12.04C203.309 12.4743 204.109 13.1315 204.834 13.9257C205.56 14.7257 206.069 15.5943 206.434 16.6857C206.8 17.7029 207.011 18.7886 207.011 19.9543C207.011 21.5486 206.72 23 206.069 24.3086C205.417 25.6172 204.617 26.6286 203.526 27.3543C202.366 28.0057 201.057 28.3715 199.68 28.3715H199.686Z" fill="black"/>
<path d="M30.2629 31.4572H5.86865V34.8686H30.2629V31.4572Z" fill="#111111"/>
<path d="M24.7429 27.5086V13.2057L19.2972 23.8057H16.7601L11.2401 13.2057V27.5086H6.74292V5.29715H11.6058L17.9944 17.7086L24.3772 5.29715H29.1715V27.5086H24.7429Z" fill="#111111"/>
<defs>
<linearGradient id="paint0_linear_185_5" x1="-5.14286" y1="-3.71429" x2="35.1429" y2="41.1429" gradientUnits="userSpaceOnUse">
<stop offset="0.0337562" stop-color="#6CAFFF"/>
<stop offset="0.422137" stop-color="#FF7BAD"/>
<stop offset="0.950316" stop-color="#FFE713"/>
</linearGradient>
</defs>
</svg>
