<svg width="203" height="26" viewBox="0 0 203 26" fill="none" xmlns="http://www.w3.org/2000/svg">
<path d="M9.04303 16.0572L12.2771 0.465149H17.1936L17.6496 25.0649H14.2727L13.8762 8.30114L13.5649 8.27567L10.3902 25.0649H7.5132L4.2456 8.18275L3.93441 8.20919L3.56872 25.0649H0.159776L0.584008 0.465149H5.68441L8.73513 16.0555L9.04303 16.0572Z" fill="#121112" stroke="white" stroke-width="0.314088"/>
<path d="M30.0515 19.7211L30.0295 19.5902H29.8967H25.9597H25.8277L25.805 19.7203L24.874 25.0649H20.4287L25.1967 0.465149H30.5667L35.3035 25.0649H30.9515L30.0515 19.7211ZM29.4038 16.7665H29.5862L29.5591 16.5861L28.0519 6.55869L27.7412 6.55917L26.2651 16.5866L26.2386 16.7665H26.4205H29.4038Z" fill="#121112" stroke="white" stroke-width="0.314088"/>
<path d="M39.2111 23.5632L39.2111 23.5632C38.1162 22.3612 37.4978 20.4966 37.3814 17.9412L41.4256 17.2578C41.4155 18.4141 41.646 19.5606 42.1032 20.6243L42.1032 20.6243L42.1048 20.6279C42.275 20.9983 42.55 21.3106 42.8958 21.5263C43.2392 21.7405 43.6374 21.8501 44.0418 21.8419C44.3111 21.864 44.5817 21.8186 44.829 21.7097C45.0791 21.5996 45.2973 21.4282 45.4635 21.2114L45.4639 21.2117L45.4705 21.2015C45.7692 20.7422 45.9179 20.2016 45.8961 19.6542C45.9235 18.7435 45.6859 17.8444 45.212 17.0661L45.2123 17.066L45.207 17.0584C44.6142 16.2018 43.9061 15.4308 43.1029 14.7674L40.5212 12.523L40.5213 12.5229L40.5171 12.5195C39.5844 11.763 38.7999 10.8402 38.2032 9.79794C37.6477 8.73206 37.3737 7.54186 37.4074 6.34032L37.4074 6.34032V6.33592C37.4074 4.33791 37.9964 2.82064 39.1557 1.75991C40.3183 0.696043 41.9315 0.156521 44.0154 0.159991H44.0156C46.2427 0.159991 47.7493 0.800514 48.5903 2.03952C49.4905 3.46563 49.9994 5.10262 50.0673 6.78609L45.9888 7.38501C45.9821 6.44274 45.8289 5.50685 45.5344 4.61098L45.5347 4.6109L45.5315 4.60269C45.4013 4.2707 45.1667 3.99004 44.8631 3.80301C44.5624 3.61783 44.2103 3.53438 43.8587 3.56487C43.5852 3.55529 43.3134 3.61324 43.0675 3.73365C42.8185 3.85555 42.6038 4.03763 42.4429 4.2634C42.1122 4.72364 41.9399 5.27877 41.9517 5.84532C41.9273 6.60363 42.122 7.35294 42.5124 8.00353L42.5122 8.00369L42.5176 8.01164C43.0043 8.72013 43.5881 9.35674 44.2519 9.90281L46.7725 12.1153L46.7725 12.1153L46.774 12.1166C47.865 13.0501 48.7988 14.1528 49.5397 15.3827C50.2231 16.6004 50.5663 17.9796 50.5332 19.3756L50.5331 19.3756L50.5332 19.3821C50.5521 20.4673 50.2831 21.5382 49.7537 22.4857C49.2372 23.3909 48.4755 24.1318 47.5564 24.6231C46.5437 25.1589 45.4111 25.4278 44.2656 25.4045L44.2656 25.4045H44.2624C41.9939 25.4038 40.3202 24.7814 39.2111 23.5632Z" fill="#121112" stroke="white" stroke-width="0.314088"/>
<path d="M55.7035 3.90351H55.5465H52.0164V0.465149H64.4357V3.90351H60.8098H60.6527V4.06055V25.0649H55.8606V4.06055H55.7041V3.90351H55.7035Z" fill="#121112" stroke="white" stroke-width="0.314088"/>
<path d="M71.88 21.936H77.5957V25.0665H66.993V0.465149H77.5387V3.65731H71.88H71.7229V3.81436V10.4273V10.5843H71.88H76.2139V13.8092H71.88H71.7229V13.9662V21.779V21.936H71.88Z" fill="#121112" stroke="white" stroke-width="0.314088"/>
<path d="M85.2261 13.9335V25.0649H80.493V0.465149H86.7954C89.4665 0.465149 91.4472 0.955288 92.7619 1.91122C94.0587 2.85411 94.7274 4.49671 94.7274 6.88991H94.7273L94.7275 6.89587C94.7775 8.21247 94.5513 9.52494 94.0635 10.7488C93.5935 11.7397 92.7674 12.5172 91.7498 12.9264L91.6187 12.9791L91.6573 13.115L95.0472 25.0649H90.1796L87.3806 13.8953L87.3508 13.7765H87.2282H85.3831H85.2261V13.9335ZM89.6072 4.50142L89.6032 4.49484L89.5986 4.48869C89.1242 3.85693 88.2837 3.56489 87.1355 3.56453H87.1355H85.3821H85.225V3.72158V10.9191V11.0762H85.3821H86.8887C86.8889 11.0762 86.8891 11.0762 86.8893 11.0762C88.0988 11.0761 88.9919 10.7794 89.5172 10.1423C90.0323 9.5175 90.275 8.55791 90.2758 7.29558C90.3507 6.31723 90.1168 5.33998 89.6072 4.50142Z" fill="#121112" stroke="white" stroke-width="0.314088"/>
<path d="M99.5583 23.5633L99.5582 23.5632C98.4643 22.3626 97.8462 20.498 97.7291 17.9412L101.773 17.2578C101.763 18.4141 101.994 19.5607 102.451 20.6243L102.451 20.6244L102.452 20.6279C102.623 20.9983 102.898 21.3107 103.243 21.5264C103.587 21.7406 103.985 21.8502 104.389 21.8419C104.659 21.864 104.929 21.8186 105.177 21.7097C105.427 21.5996 105.645 21.4282 105.811 21.2114L105.811 21.2117L105.818 21.2015C106.117 20.7422 106.266 20.2016 106.244 19.6542C106.271 18.7435 106.034 17.8444 105.56 17.0661L105.56 17.066L105.555 17.0584C104.962 16.2018 104.254 15.4309 103.451 14.7674L100.869 12.523L100.869 12.5229L100.865 12.5195C99.932 11.763 99.1474 10.8403 98.5509 9.79794C97.9952 8.73209 97.7213 7.54188 97.755 6.34033L97.7551 6.34033V6.33592C97.7551 4.33791 98.3441 2.82064 99.5033 1.75991C100.666 0.696026 102.278 0.156521 104.361 0.159991H104.361C106.588 0.159991 108.095 0.800515 108.936 2.03952C109.836 3.46563 110.345 5.10263 110.413 6.78609L106.334 7.38501C106.328 6.44273 106.175 5.50683 105.88 4.61097L105.88 4.61089L105.877 4.6027C105.747 4.2707 105.512 3.99004 105.209 3.80301C104.908 3.61783 104.556 3.53438 104.204 3.56487C103.931 3.55535 103.659 3.61331 103.413 3.73371C103.164 3.85557 102.949 4.03756 102.789 4.26321C102.458 4.7236 102.286 5.27878 102.298 5.84533C102.273 6.60372 102.468 7.35308 102.859 8.00359L102.859 8.00374L102.864 8.01167C103.351 8.72015 103.935 9.35675 104.599 9.90281L107.12 12.1153L107.12 12.1153L107.121 12.1166C108.212 13.0501 109.146 14.1529 109.887 15.3827C110.57 16.6004 110.913 17.9796 110.88 19.3756L110.88 19.3756L110.88 19.3821C110.899 20.4673 110.63 21.5382 110.101 22.4858C109.584 23.391 108.823 24.1318 107.903 24.6231C106.89 25.1587 105.757 25.4273 104.612 25.4035L104.612 25.4034H104.608C102.34 25.4034 100.666 24.7813 99.5583 23.5633Z" fill="#121112" stroke="white" stroke-width="0.314088"/>
<path d="M114.135 7.57192C114.374 7.55934 114.608 7.49624 114.822 7.38585C115.1 7.24222 115.333 7.02414 115.495 6.75591L115.5 6.74718L115.505 6.73783C115.811 6.03792 115.947 5.27524 115.902 4.51247L115.893 4.36478H115.745H113.872V0.465149H117.801L117.771 3.62596C117.71 5.44224 117.419 6.74022 116.919 7.54445C116.448 8.3002 115.639 8.7141 114.45 8.75872L114.135 7.57192Z" fill="#121112" stroke="white" stroke-width="0.314088"/>
<path d="M131.048 24.4872L131.048 24.487C130.042 23.8906 129.282 22.9562 128.902 21.8507C128.435 20.3986 128.219 18.8774 128.264 17.3527L128.264 17.3527V17.348V0.465149H132.933V18.0523C132.893 19.0236 133.042 19.9934 133.373 20.9077L133.378 20.9217L133.385 20.9345C133.583 21.2673 133.864 21.543 134.2 21.7345C134.537 21.9259 134.917 22.0266 135.304 22.0266C135.692 22.0266 136.072 21.9259 136.408 21.7345C136.745 21.543 137.026 21.2673 137.223 20.9345L137.231 20.9217L137.236 20.9076C137.566 19.9933 137.716 19.0236 137.676 18.0523V0.465149H142.376V17.348H142.375L142.376 17.3526C142.42 18.8774 142.204 20.3986 141.737 21.8506C141.355 22.9578 140.591 23.892 139.581 24.4844C138.264 25.1618 136.791 25.4788 135.312 25.403L135.312 25.4028L135.304 25.4028C133.474 25.4032 132.06 25.0926 131.048 24.4872Z" fill="#121112" stroke="white" stroke-width="0.314088"/>
<path d="M155.3 13.2571V0.465149H159.2V25.0649H156.049L150.553 11.3841L150.25 11.4426V25.0649H146.227V0.465149H149.504L154.999 13.3189L155.3 13.2571Z" fill="#121112" stroke="white" stroke-width="0.314088"/>
<path d="M163.325 0.465149H168.055V25.0649H163.325V0.465149Z" fill="#121112" stroke="white" stroke-width="0.314088"/>
<path d="M186.174 8.08948V8.08952V17.409C186.174 20.0555 185.609 22.0388 184.503 23.3839C183.407 24.7172 181.581 25.4026 178.98 25.4026C176.36 25.4029 174.53 24.7175 173.442 23.3849C172.347 22.0399 171.786 20.0461 171.786 17.3784V8.08952C171.786 5.42168 172.347 3.4444 173.441 2.13069C174.527 0.828003 176.358 0.157044 178.98 0.157044C181.581 0.157044 183.407 0.832605 184.504 2.14609C185.609 3.47032 186.174 5.44278 186.174 8.08948ZM180.052 21.8939C180.361 21.738 180.622 21.5018 180.807 21.2109H180.822L180.863 21.1167C181.204 20.3359 181.361 19.487 181.322 18.6358V6.86301C181.364 6.02095 181.206 5.1809 180.862 4.41113L180.855 4.3935L180.843 4.3783C180.621 4.09607 180.339 3.86786 180.016 3.71092C179.694 3.55398 179.34 3.47242 178.981 3.47242C178.623 3.47242 178.269 3.55398 177.946 3.71092C177.624 3.86785 177.341 4.09607 177.12 4.3783L177.108 4.39348L177.1 4.41108C176.756 5.18079 176.598 6.02094 176.64 6.86304V18.6355C176.599 19.4898 176.75 20.3425 177.083 21.1303L177.083 21.1304L177.088 21.1393C177.41 21.7843 178.061 22.0856 178.972 22.0876C179.343 22.1296 179.719 22.0623 180.052 21.8939Z" fill="#121112" stroke="white" stroke-width="0.314088"/>
<path d="M198.945 13.2571V0.465149H202.844V25.0649H199.693L194.198 11.3841L193.895 11.4426V25.0649H189.872V0.465149H193.149L198.643 13.3189L198.945 13.2571Z" fill="#121112" stroke="white" stroke-width="0.314088"/>
</svg>
