<svg width="203" height="26" viewBox="0 0 203 26" fill="none" xmlns="http://www.w3.org/2000/svg">
<path d="M0.429649 0.308197H5.8137L8.88925 16.0254L12.1493 0.308197H17.3478L17.8096 25.222H14.1194L13.7192 8.30494L10.5203 25.222H7.38364L4.09142 8.21269L3.72239 25.222H0L0.429649 0.308197Z" fill="white"/>
<path d="M25.0672 0.308197H30.6964L35.4937 25.222H30.8187L29.8967 19.7473H25.9597L25.0061 25.222H20.2383L25.0672 0.308197ZM29.4038 16.6096L27.8966 6.58213L26.4205 16.6096H29.4038Z" fill="white"/>
<path d="M39.095 23.6691C37.945 22.4067 37.3196 20.4535 37.2188 17.8096L41.5864 17.0715C41.5485 18.2695 41.7742 19.4613 42.2475 20.5625C42.4049 20.905 42.6592 21.1938 42.9789 21.3933C43.2987 21.5927 43.67 21.6941 44.0467 21.6848C44.2926 21.7064 44.5399 21.6656 44.7657 21.5661C44.9916 21.4667 45.1887 21.3119 45.3389 21.116C45.6209 20.6825 45.7607 20.1719 45.739 19.6552C45.7666 18.773 45.5369 17.9018 45.0779 17.148C44.4929 16.3026 43.7941 15.5419 43.0014 14.8874L40.4182 12.6416C39.4696 11.8722 38.6718 10.9337 38.0654 9.87344C37.4965 8.78313 37.2159 7.56542 37.2504 6.33609C37.2504 4.30575 37.8501 2.7418 39.0496 1.64422C40.2491 0.546633 41.9045 -0.00040015 44.0156 0.00311436C46.2716 0.00311436 47.8403 0.653299 48.7217 1.95367C49.6626 3.44345 50.1834 5.15983 50.2289 6.92125L45.8312 7.56704C45.8442 6.58011 45.6935 5.59785 45.3853 4.66019C45.2675 4.35991 45.0553 4.10605 44.7807 3.93689C44.5061 3.76772 44.1839 3.69243 43.8628 3.72235C43.6118 3.71197 43.3621 3.76439 43.1365 3.87486C42.9109 3.98532 42.7164 4.15034 42.5707 4.35496C42.2589 4.78875 42.0967 5.31225 42.1088 5.84634C42.0846 6.57591 42.2715 7.29698 42.6471 7.92289C43.1259 8.61994 43.7004 9.24621 44.3536 9.7833L46.8761 11.9974C47.9805 12.9424 48.9256 14.0588 49.6754 15.3039C50.3735 16.5467 50.724 17.9545 50.6902 19.3795C50.7096 20.4927 50.4337 21.5912 49.8905 22.5631C49.3592 23.4944 48.5756 24.2566 47.63 24.762C46.5936 25.3103 45.4346 25.5856 44.2624 25.5617C41.9656 25.561 40.2432 24.9301 39.095 23.6691Z" fill="white"/>
<path d="M55.7041 4.06064H51.8594V0.308197H64.5928V4.06064H60.8098V25.222H55.7035V4.06064H55.7041Z" fill="white"/>
<path d="M66.8359 0.308197H77.6958V3.81445H71.88V10.4274H76.371V13.9663H71.88V21.7791H77.7527V25.2236H66.8359V0.308197Z" fill="white"/>
<path d="M80.3359 0.308197H86.7954C89.4812 0.308197 91.5008 0.800228 92.8543 1.78429C94.2077 2.76836 94.8844 4.47026 94.8844 6.89C94.9354 8.23016 94.7048 9.56612 94.2075 10.8117C93.721 11.8404 92.8642 12.6477 91.8084 13.0722L95.255 25.222H90.0571L87.2282 13.9336H85.3831V25.222H80.3359V0.308197ZM86.8887 10.9192C88.0784 10.9192 88.9142 10.627 89.396 10.0425C89.8778 9.45805 90.1188 8.54041 90.1188 7.2896C90.1925 6.34204 89.9666 5.39526 89.473 4.58307C89.0421 4.00915 88.2629 3.72202 87.1355 3.72167H85.3821V10.9192H86.8893H86.8887Z" fill="white"/>
<path d="M99.4421 23.6691C98.2932 22.4081 97.668 20.4549 97.5664 17.8096L101.934 17.0715C101.896 18.2695 102.122 19.4613 102.595 20.5625C102.752 20.905 103.007 21.1939 103.327 21.3934C103.646 21.5928 104.018 21.6942 104.394 21.6848C104.64 21.7064 104.888 21.6656 105.113 21.5661C105.339 21.4667 105.536 21.3119 105.686 21.116C105.968 20.6825 106.108 20.1719 106.087 19.6552C106.114 18.773 105.885 17.9019 105.426 17.148C104.84 16.3027 104.142 15.542 103.349 14.8874L100.766 12.6417C99.8172 11.8723 99.0194 10.9337 98.413 9.87345C97.8441 8.78315 97.5635 7.56543 97.598 6.33609C97.598 4.30576 98.1978 2.7418 99.3973 1.64422C100.597 0.546634 102.251 -0.000400152 104.361 0.00311436C106.617 0.00311436 108.186 0.6533 109.067 1.95367C110.008 3.44346 110.529 5.15983 110.574 6.92126L106.177 7.56705C106.19 6.58011 106.039 5.59783 105.731 4.66019C105.613 4.35991 105.401 4.10605 105.126 3.93689C104.852 3.76773 104.529 3.69243 104.208 3.72235C103.957 3.71202 103.708 3.76447 103.482 3.87493C103.256 3.98539 103.062 4.15038 102.916 4.35496C102.605 4.78887 102.443 5.31233 102.455 5.84634C102.431 6.57598 102.618 7.29707 102.994 7.92289C103.473 8.61995 104.047 9.24622 104.701 9.7833L107.223 11.9974C108.328 12.9424 109.273 14.0588 110.023 15.3039C110.72 16.5467 111.071 17.9545 111.037 19.3795C111.057 20.4927 110.781 21.5912 110.238 22.5631C109.706 23.4944 108.923 24.2566 107.977 24.762C106.94 25.3101 105.781 25.585 104.608 25.5606C102.311 25.5606 100.589 24.9301 99.4421 23.6691Z" fill="white"/>
<path d="M113.93 7.41296C114.214 7.43435 114.498 7.37669 114.75 7.24639C115.003 7.11608 115.214 6.91824 115.361 6.67491C115.657 5.99776 115.789 5.25988 115.745 4.52192H113.715V0.308197H117.959L117.928 3.62941C117.867 5.45449 117.575 6.7872 117.052 7.62752C116.529 8.46784 115.622 8.89836 114.33 8.9191L113.93 7.41296Z" fill="white"/>
<path d="M130.967 24.6221C129.93 24.0065 129.145 23.0417 128.753 21.9003C128.28 20.4307 128.062 18.8912 128.107 17.3481V0.308197H133.09V18.0556C133.05 19.0076 133.197 19.9582 133.521 20.8544C133.704 21.1638 133.965 21.4201 134.278 21.5981C134.591 21.7761 134.945 21.8697 135.304 21.8697C135.664 21.8697 136.018 21.7761 136.331 21.5981C136.644 21.4201 136.905 21.1638 137.088 20.8544C137.412 19.9582 137.558 19.0076 137.519 18.0556V0.308197H142.533V17.3481C142.578 18.8913 142.359 20.4308 141.886 21.9003C141.492 23.045 140.701 24.0107 139.656 24.6221C138.314 25.3136 136.812 25.6372 135.304 25.56C133.459 25.5603 132.014 25.2477 130.967 24.6221Z" fill="white"/>
<path d="M146.07 0.308197H149.608L155.143 13.2572V0.308197H159.357V25.222H155.943L150.407 11.4427V25.222H146.07V0.308197Z" fill="white"/>
<path d="M163.168 0.308197H168.212V25.222H163.168V0.308197Z" fill="white"/>
<path d="M173.321 23.4841C172.193 22.1001 171.629 20.0649 171.629 17.3784V8.08952C171.629 5.40338 172.193 3.38359 173.321 2.03016C174.448 0.676719 176.335 0 178.98 0C181.605 0 183.486 0.681815 184.624 2.04544C185.763 3.40907 186.332 5.42377 186.331 8.08952V17.409C186.331 20.0747 185.762 22.0996 184.624 23.4836C183.487 24.8676 181.605 25.5596 178.98 25.5596C176.336 25.56 174.45 24.8681 173.321 23.4841ZM180.719 21.0539C181.051 20.2939 181.204 19.4678 181.165 18.6394V6.85909C181.206 6.04042 181.053 5.22359 180.719 4.4752C180.512 4.21171 180.249 3.99864 179.948 3.85212C179.646 3.70561 179.316 3.62947 178.981 3.62947C178.646 3.62947 178.316 3.70561 178.015 3.85212C177.714 3.99864 177.45 4.21171 177.243 4.4752C176.909 5.22351 176.756 6.0404 176.797 6.85909V18.6394C176.756 19.4714 176.904 20.3019 177.228 21.0691C177.515 21.6434 178.099 21.9305 178.981 21.9305C179.325 21.9711 179.673 21.9096 179.982 21.7537C180.291 21.5978 180.547 21.3544 180.718 21.0539H180.719Z" fill="white"/>
<path d="M189.715 0.308197H193.252L198.788 13.2572V0.308197H203.001V25.222H199.587L194.052 11.4427V25.222H189.715V0.308197Z" fill="white"/>
</svg>
