<?xml version="1.0" encoding="utf-8"?>
<!-- Generator: Adobe Illustrator 26.0.3, SVG Export Plug-In . SVG Version: 6.00 Build 0)  -->
<svg version="1.0" id="Layer_1" xmlns="http://www.w3.org/2000/svg" xmlns:xlink="http://www.w3.org/1999/xlink" x="0px" y="0px"
	 viewBox="0 0 1160.1 775.6" style="enable-background:new 0 0 1160.1 775.6;" xml:space="preserve">
<style type="text/css">
	.st0{fill:#25C16F;}
	.st1{fill:#FFFFFF;}
	.st2{clip-path:url(#SVGID_00000110463719827002186840000013636426261235286711_);fill:#3972E6;}
	.st3{clip-path:url(#SVGID_00000045600794064885504160000005611759875165488565_);fill:#FF5969;}
	.st4{clip-path:url(#SVGID_00000031206277592437871640000013862583266246063006_);fill:#FF5969;}
	.st5{clip-path:url(#SVGID_00000071550907065426093570000008439285932911113892_);fill:#FFA800;}
	.st6{fill:none;}
	.st7{clip-path:url(#SVGID_00000122694422992542760910000017963437785454230917_);fill:#25C16F;}
	.st8{fill:#FFFFFF;}
	.st9{fill:#FFFFFF;stroke:#FFFFFF;stroke-width:2;stroke-miterlimit:10;}
</style>
<g>
	<path class="st0" d="M308.6,387.7c0-17.4-3.7-33.9-10.5-48.8L177.5,505.5c4.1,0.4,8.4,0.7,12.6,0.7
		C255.5,506.2,308.6,453.1,308.6,387.7"/>
	<g>
		<path class="st1" d="M738,377.9v53.8c0,1.8-0.5,2.2-2.2,2.2c-5.8-0.1-11.6-0.1-17.4,0c-1.9,0-2.1-0.6-2.1-2.3
			c0.1-14.9,0-29.9,0.1-44.8c0-1.9-0.4-2.4-2.3-2.4c-11,0.1-22,0.1-33,0c-1.7,0-2.2,0.4-2.2,2.2c0.1,15,0,30,0.1,45
			c0,1.7-0.4,2.3-2.2,2.2c-6-0.1-11.9-0.1-17.9,0c-1.4,0-1.7-0.4-1.7-1.8V323.2c0-1.4,0.3-1.8,1.7-1.7c6,0.1,12.1,0.1,18.1,0
			c1.6,0,2,0.4,2,2c-0.1,12.7,0,25.3-0.1,38c0,1.8,0.5,2.2,2.2,2.2c11.1-0.1,22.2-0.1,33.2,0c1.7,0,2.1-0.5,2.1-2.1
			c-0.1-12.6,0-25.2-0.1-37.8c0-1.7,0.3-2.3,2.1-2.3c5.8,0.1,11.6,0.1,17.4,0c1.8,0,2.2,0.4,2.2,2.2L738,377.9L738,377.9z"/>
		<path class="st1" d="M413.2,436.6c-15.2,0-28.2-3.4-39.3-12.3c-12.4-10-19.3-23-20.9-38.9c-1.2-11.4-0.1-22.6,4.8-33.1
			c7.3-15.6,19.7-25.7,35.9-30.5c24.1-7.1,45.5-1.4,63.9,15.7c4.1,3.8,4,3.8,0,7.6c-3.4,3.1-6.7,6.3-10,9.5c-1,1-1.6,1.1-2.7,0
			c-6.5-6.5-14-11.3-23.1-13.6c-20.3-5.1-41.1,6.1-46.4,25.4c-3.9,14.3-1.6,27.7,9.2,38.5c8.7,8.8,19.8,11.6,31.9,10.7
			c11.4-0.9,20.2-6.8,28.1-14.5c1.3-1.2,1.8-1.1,3,0.1c3.9,4.3,8,8.4,12,12.6c0.9,0.9,1,1.4,0,2.3c-10.5,10.1-22.1,18-36.9,19.8
			C419.2,436.3,415.6,436.7,413.2,436.6"/>
		<path class="st1" d="M578,376.4c0-18.3,0-36.6-0.1-55c0-2.1,0.6-2.6,2.6-2.6c5.4,0.1,10.9,0.1,16.3,0c1.5,0,2.1,0.3,2.1,2v111
			c0,1.6-0.5,2-2.1,2c-5.6-0.1-11.2-0.1-16.7,0c-1.9,0-2.2-0.7-2.2-2.3C578,413.2,578,394.8,578,376.4"/>
		<path class="st1" d="M615.5,376.2c0-18.2,0.1-36.3-0.1-54.5c0-2.4,0.7-2.8,2.9-2.8c5.3,0.2,10.7,0.1,16.1,0c1.5,0,2.1,0.3,2.1,2
			v111c0,1.6-0.6,2-2.1,2c-5.5-0.1-11-0.2-16.5,0c-2.2,0.1-2.4-0.7-2.4-2.6V376.2z"/>
		<path class="st1" d="M758.9,392.4v-39.3c0-1.7,0.4-2.1,2.1-2.1c5.7,0.1,11.5,0.1,17.2,0c1.5,0,1.8,0.5,1.8,1.9V432
			c0,1.5-0.4,1.9-1.9,1.9c-5.8-0.1-11.6-0.1-17.4,0c-1.6,0-1.8-0.5-1.8-1.9L758.9,392.4L758.9,392.4z"/>
		<path class="st1" d="M769.6,343.8c-7.7,0-13.5-5.9-13.5-13.6c0-7.4,5.8-13.1,13.2-13.1c7.6,0,13.5,5.8,13.5,13.3
			C782.8,338,777.1,343.8,769.6,343.8"/>
		<path class="st1" d="M819.1,359.9c12.7-11.3,26.6-14,41.8-7.4c10.4,4.5,17.4,12.9,20.8,23.7c4.4,14,3.8,27.8-4.2,40.6
			c-9.5,15.2-26.8,22.1-43.1,17.4c-5.8-1.7-10.6-5-15-9c-0.7,0.7-0.3,1.5-0.3,2.2c0,11.5-0.1,23.1,0,34.6c0,1.6-0.3,2.2-2,2.1
			c-5.5-0.1-11-0.1-16.5,0c-1.9,0-2.3-0.4-2.3-2.3c0.1-26.6,0-53.2,0-79.9v-29c0-1.7,0.4-2.1,2.1-2.1c5.6,0.1,11.2,0.1,16.7,0
			c1.8,0,2.2,0.5,2.1,2.1C819,355.3,819.1,357.5,819.1,359.9 M818.6,397.7c2.3,15.1,18.9,23.5,32.4,16.4
			c8.4-4.4,13.1-13.7,12.3-24.3c-1.2-15.3-14.4-24.7-29-20.7c-9.8,2.7-16.1,11.7-16.2,23.2C818.1,394,818.3,395.9,818.6,397.7"/>
		<path class="st1" d="M922.2,360.1c5.9-5.6,12.3-9.3,19.9-10.4c18.5-2.7,35,6.5,41.7,24c5.9,15.4,5.3,30.6-4.2,44.7
			c-9.8,14.4-26.3,20.5-42.1,15.9c-5.8-1.7-10.6-5-15-9c-0.7,0.7-0.3,1.4-0.3,2.1c0,11.5-0.1,23.1,0,34.6c0,1.8-0.5,2.2-2.2,2.2
			c-5.5-0.1-11-0.1-16.5,0c-1.6,0-2.2-0.2-2.2-2c0.1-36.4,0.1-72.8,0-109.3c0-1.4,0.3-1.9,1.8-1.9c5.8,0.1,11.6,0.1,17.4,0
			c1.3,0,1.7,0.3,1.6,1.6C922.2,355,922.2,357.3,922.2,360.1 M966.1,387.2c-2.6-16.7-22.4-24.7-35.9-14.4
			c-7.2,5.5-9.4,13.2-8.8,21.8c1,14.7,12.5,23.9,26.9,21.6c10.5-1.7,18.3-11.8,18.4-23.9C966.5,390.6,966.4,388.9,966.1,387.2"/>
		<path class="st1" d="M538.8,425.3c-1.3,1.1-2.3,1.8-3.3,2.6c-14.1,11.6-35.2,10.1-48.5-2.8c-11.2-10.9-14.6-24.2-13-39.2
			c1.3-12.2,6.7-22.3,16.7-29.6c13.8-10.3,32.8-9.3,46.1,2.1c0.5,0.4,1,0.8,1.9,1.6c0-2.7,0.1-4.9,0-7.1c-0.1-1.4,0.4-1.8,1.8-1.8
			c5.7,0.1,11.5,0.1,17.2,0c1.4,0,1.7,0.5,1.7,1.8v79.2c0,1.5-0.5,1.9-1.9,1.9c-5.6-0.1-11.2-0.1-16.7,0c-1.8,0-2.2-0.6-2.1-2.2
			C538.9,429.7,538.8,427.8,538.8,425.3 M494.7,395.1c0.9,15.8,17,25.9,31.5,19.7c8.7-3.7,13.9-12.5,13.7-23.5
			c-0.3-15.2-12.3-25.2-27.2-22.7c-10.6,1.8-18,11.4-17.9,23.5C494.7,393.2,494.6,394.1,494.7,395.1"/>
		<path class="st1" d="M1087.2,393.5c-0.2,22.3-18.9,44.2-47.9,42.1c-21-1.5-40.6-20.3-39.2-45.8c1.3-23.5,22.6-42.7,46.9-40.4
			C1070.7,351.6,1087.9,370.7,1087.2,393.5 M1065.6,387.3c-1.6-8.6-6.1-14.9-14.6-17.7c-8.6-2.8-16.6-1.4-23.2,5.1
			c-6.2,6.1-7.6,13.7-6.6,22.1c1.7,14.4,15.5,23.3,29.3,18.8c9.4-3,15.3-11.8,15.5-23.7C1066,390.8,1066,389,1065.6,387.3"/>
	</g>
	<g>
		<g>
			<g>
				<g>
					<defs>
						<path id="SVGID_1_" d="M71.4,387.7c0,65.5,53.2,118.6,118.7,118.6s118.8-53.1,118.8-118.6s-53.2-118.6-118.8-118.6
							S71.4,322.2,71.4,387.7"/>
					</defs>
					<clipPath id="SVGID_00000091718728960613549590000011201270244178198174_">
						<use xlink:href="#SVGID_1_"  style="overflow:visible;"/>
					</clipPath>
					<path style="clip-path:url(#SVGID_00000091718728960613549590000011201270244178198174_);fill:#3972E6;" d="M190.2,269.2
						c-65.4,0-118.5,53.1-118.5,118.5c0,16.2,3.3,31.6,9.1,45.6l118.6-163.7C196.4,269.3,193.3,269.2,190.2,269.2"/>
				</g>
			</g>
		</g>
	</g>
	<g>
		<g>
			<g>
				<g>
					<defs>
						<path id="SVGID_00000040536705498712182600000006687850368347561381_" d="M71.4,387.7c0,65.5,53.2,118.6,118.7,118.6
							s118.8-53.1,118.8-118.6s-53.2-118.6-118.8-118.6S71.4,322.2,71.4,387.7"/>
					</defs>
					<clipPath id="SVGID_00000098902356913526821700000015638990021014591127_">
						<use xlink:href="#SVGID_00000040536705498712182600000006687850368347561381_"  style="overflow:visible;"/>
					</clipPath>
					<path style="clip-path:url(#SVGID_00000098902356913526821700000015638990021014591127_);fill:#FF5969;" d="M200.8,269.7
						L81.4,434.6c3.8,8.9,8.7,17.2,14.5,24.9c0.4,2.7,2.1,17.8-4.1,27.2c-6.8,10.4-10.5,19.4,8.3,17.6c1.3-0.1,2.7-0.3,4-0.5
						l154.3-213C241.8,279.1,222.1,271.6,200.8,269.7"/>
				</g>
			</g>
		</g>
	</g>
	<g>
		<g>
			<g>
				<g>
					<defs>
						<path id="SVGID_00000154393064320135114420000008872630883905564033_" d="M71.4,387.7c0,65.5,53.2,118.6,118.7,118.6
							s118.8-53.1,118.8-118.6s-53.2-118.6-118.8-118.6S71.4,322.2,71.4,387.7"/>
					</defs>
					<clipPath id="SVGID_00000049934058494267810720000000443352032021149316_">
						<use xlink:href="#SVGID_00000154393064320135114420000008872630883905564033_"  style="overflow:visible;"/>
					</clipPath>
					<path style="clip-path:url(#SVGID_00000049934058494267810720000000443352032021149316_);fill:#FF5969;" d="M199.4,269.6
						L80.8,433.3c0.2,0.4,0.3,0.9,0.5,1.3l119.5-164.9C200.4,269.6,199.9,269.6,199.4,269.6"/>
				</g>
			</g>
		</g>
	</g>
	<g>
		<g>
			<g>
				<g>
					<defs>
						<path id="SVGID_00000099651802109320883790000000373886332387849351_" d="M71.4,387.7c0,65.5,53.2,118.6,118.7,118.6
							s118.8-53.1,118.8-118.6s-53.2-118.6-118.8-118.6S71.4,322.2,71.4,387.7"/>
					</defs>
					<clipPath id="SVGID_00000096760005397905473170000014050137660268838026_">
						<use xlink:href="#SVGID_00000099651802109320883790000000373886332387849351_"  style="overflow:visible;"/>
					</clipPath>
					<path style="clip-path:url(#SVGID_00000096760005397905473170000014050137660268838026_);fill:#FFA800;" d="M258.4,290.8
						l-154.3,213c17.5-2.4,34.5-9.3,34.5-9.3c12,5.8,25,9.6,38.8,11l120.7-166.6C289.4,319.5,275.6,302.9,258.4,290.8"/>
				</g>
			</g>
		</g>
	</g>
	<path class="st6" d="M71.4,387.7c0,65.5,53.2,118.6,118.7,118.6s118.8-53.1,118.8-118.6s-53.2-118.6-118.8-118.6
		S71.4,322.2,71.4,387.7"/>
	<g>
		<g>
			<g>
				<g>
					<defs>
						<path id="SVGID_00000095332102527187984460000005412062233830791810_" d="M71.4,387.7c0,65.5,53.2,118.6,118.7,118.6
							s118.8-53.1,118.8-118.6s-53.2-118.6-118.8-118.6S71.4,322.2,71.4,387.7"/>
					</defs>
					<clipPath id="SVGID_00000010278999869780722480000009572674070428637572_">
						<use xlink:href="#SVGID_00000095332102527187984460000005412062233830791810_"  style="overflow:visible;"/>
					</clipPath>
					<path style="clip-path:url(#SVGID_00000010278999869780722480000009572674070428637572_);fill:#25C16F;" d="M298.1,338.9
						L177.5,505.5L298.1,338.9z"/>
				</g>
			</g>
		</g>
	</g>
	<polygon class="st8" points="145.3,446.9 119.3,482.8 119.3,482.8 	"/>
	<path class="st8" d="M190.1,506.2c-4.2,0-8.5-0.3-12.6-0.7l0,0l0,0l0,0l46.6-64.4l0,0l-46.6,64.4c-13.8-1.4-26.8-5.2-38.8-11l0,0
		C154.1,502,171.6,506.2,190.1,506.2c29,0,55.5-10.3,76.1-27.4c0-0.1-0.1-0.1-0.1-0.2C245.4,495.8,219,506.2,190.1,506.2z"/>
	<polygon class="st8" points="224.1,441.1 177.5,505.5 177.5,505.5 	"/>
	<path class="st8" d="M125.7,377.1c0,0,9.4-54.8,63.4-58.8c0,0,49.3-5.3,63.7,53.5l1.5,6.1l-7.6,0.2c0,0-7.6-51.5-55.8-51.6
		c0,0-45.1-2.8-57.5,52.7L125.7,377.1z"/>
	<path class="st8" d="M137.3,385.5v-6.2c0-2-0.1-4.2-0.1-6.2c-0.1-2.2-1.2-3.7-3.1-4.3c-1.4-0.5-3.1-0.7-4.6-0.4
		c-4.2,0.7-6.7,3.7-6.7,8c-0.1,6.7,0,13.3,0,20c0,2,0.6,3.7,1.8,5.2c1.8,2.4,5,3.4,8.2,2.5c2.8-0.9,4.6-3.1,4.6-6.2
		C137.3,393.8,137.3,389.6,137.3,385.5"/>
	<path class="st8" d="M184.3,423.1c2-2.1,4.9-3.3,8-3.2l15.6,0.4c3.9,0,7,1.6,9.1,4.5c0.1,0.1,0.3,0.4,1.2-0.1l1.2-0.7
		c0.9-0.5,1.9-1.1,2.8-1.6c4-3.5,7.4-7.7,10.4-12.7c6.1-10.3,7.8-21.6,5.6-33.3c-4.3-23.1-24.8-40.3-49.3-39.6
		c-24.7,0.7-44.4,19.5-47,43.2c-1.5,13.7,2.1,26,10.9,36.6c7.7,9.3,17.5,14.9,29.1,17c-0.2-0.8-0.4-1.7-0.4-2.7
		C181.3,427.9,182.3,425.1,184.3,423.1z"/>
	<path class="st8" d="M185.2,434.1c0,0.1,0.1,0.2,0.1,0.3c0.4,0,0.9-0.1,1.3-0.1C186.2,434.3,185.7,434.2,185.2,434.1z"/>
	<path class="st8" d="M258.3,379.6c-0.1-4.6-2.1-7.2-6.2-8c-1.5-0.3-3.8,0-5.8,0.5c-1.5,0.3-2.6,1.7-2.5,3.3
		c0.4,6.5,1.2,13.1,0.2,20.8c-0.6,4.6-1.9,8.7-4.1,12.2c-3.4,5.6-7.7,10.5-12.9,14.4c-2,1.6-4.3,2.8-6.4,4l-1.2,0.7
		c-1.6,0.9-3.1,0.9-4.2,0.1c-0.3-0.2-0.6-0.5-0.8-0.8c-1.6-2.2-3.7-3.3-6.7-3.3l-15.6-0.4H192c-2.2,0-4.2,0.8-5.6,2.3
		c-1.4,1.5-2.1,3.5-2.1,5.6c0.1,1.3,0.3,2.4,0.8,3.3c0.5,0.1,1,0.1,1.4,0.2c-0.4,0-0.9,0.1-1.3,0.1c0.9,1.7,2.6,2.6,4.7,2.8
		c6.2,0.3,12.6,0.4,19.7,0.3c0.8,0,1.4-0.2,2.1-0.5c1-0.5,1.9-1.4,2.4-2.7c0.8-1.8,2.1-2.6,3.1-3c8.1-3,14.9-7.9,20-14.5
		c1.6-2,2.9-4,4.3-6.1c0.4-0.7,0.9-1.4,1.3-2c0.8-1.3,1.9-1.6,3.3-1.1c1,0.4,2.2,0.6,3.5,0.9c4.1,0.7,6.8-1.1,7.7-5.1
		c0.3-1.2,0.5-2.4,0.5-3.6v-0.1c0.2-2.4,0.2-4.9,0.3-7.6v-2c0-0.9,0-1.8,0-2.7C258.4,384.8,258.4,382.3,258.3,379.6z"/>
	<path class="st9" d="M266,479.6c-5.4-9.6-12.5-18-21.5-25.2c-6.4-5.1-13.3-9.2-20.5-12.3l-0.2,0.3c-2.6-1.2-5.5-2.2-8.4-3.1
		c-1.4,1.6-3.4,2.5-5.6,2.5c-1.4,0-2.8,0-4.2,0c-5.5,0-10.7-0.1-15.7-0.4c-3.7-0.2-6.5-2.3-7.8-5.5c-2.5,0.3-5.1,0.6-7.6,1
		c-4,0.7-8,1.7-11.9,3c-3.9,1.3-7.7,2.9-11.3,4.7c-2.1,1-4.1,2.2-6.1,3.4c-1.4,1.1-2.9,2-4.4,3c-3.3,2.3-6.5,4.9-9.5,7.6
		c-3,2.8-5.8,5.8-8.4,8.9c-2.6,3.2-5,6.5-7.1,10c-0.5,0.9-1.4,2.1-1.9,3c1.6,1.3,3.7,2.9,5.4,4.2c6,4.5,11.9,8,18.7,11.3
		c12,5.8,25.8,9.5,39.5,10.9l0.3-0.4c4,0.4,8.2,0.7,12.2,0.7C218.9,507.2,245.4,496.8,266,479.6z"/>
</g>
</svg>
