<svg xmlns="http://www.w3.org/2000/svg" xmlns:xlink="http://www.w3.org/1999/xlink" version="1.1" width="256" height="256" viewBox="0 0 256 256" xml:space="preserve">

<defs>
</defs>
<g style="stroke: none; stroke-width: 0; stroke-dasharray: none; stroke-linecap: butt; stroke-linejoin: miter; stroke-miterlimit: 10; fill: none; fill-rule: nonzero; opacity: 1;" transform="translate(1.4065934065934016 1.4065934065934016) scale(2.81 2.81)" >
	<path d="M 7.345 3.883 l 49.799 -3.678 c 6.117 -0.525 7.689 -0.171 11.535 2.625 l 15.896 11.198 c 2.622 1.926 3.495 2.451 3.495 4.548 v 61.418 c 0 3.849 -1.398 6.126 -6.291 6.474 L 23.95 89.97 c -3.672 0.174 -5.421 -0.351 -7.344 -2.802 L 4.9 71.946 c -2.1 -2.802 -2.97 -4.899 -2.97 -7.35 V 10.003 C 1.93 6.855 3.328 4.231 7.345 3.883 z" style="stroke: none; stroke-width: 1; stroke-dasharray: none; stroke-linecap: butt; stroke-linejoin: miter; stroke-miterlimit: 10; fill: rgb(255,255,255); fill-rule: nonzero; opacity: 1;" transform=" matrix(1 0 0 1 0 0) " stroke-linecap="round" />
	<path d="M 57.143 0.206 L 7.345 3.884 C 3.327 4.231 1.93 6.857 1.93 10.003 v 54.593 c 0 2.451 0.87 4.548 2.97 7.35 l 11.706 15.221 c 1.923 2.451 3.672 2.976 7.344 2.802 l 57.83 -3.501 c 4.89 -0.348 6.291 -2.625 6.291 -6.474 V 18.577 c 0 -1.989 -0.786 -2.562 -3.099 -4.26 L 68.679 2.83 C 64.833 0.034 63.261 -0.32 57.143 0.206 L 57.143 0.206 z M 25.257 17.572 c -4.722 0.318 -5.793 0.39 -8.475 -1.791 l -6.818 -5.423 C 9.271 9.656 9.619 8.78 11.365 8.605 l 47.873 -3.498 c 4.02 -0.351 6.114 1.05 7.686 2.274 l 8.211 5.949 c 0.351 0.177 1.224 1.224 0.174 1.224 L 25.869 17.53 L 25.257 17.572 L 25.257 17.572 z M 19.752 79.47 V 27.331 c 0 -2.277 0.699 -3.327 2.793 -3.504 l 56.784 -3.325 c 1.926 -0.174 2.796 1.05 2.796 3.324 v 51.791 c 0 2.277 -0.351 4.203 -3.495 4.377 l -54.338 3.15 C 21.148 83.318 19.753 82.272 19.752 79.47 L 19.752 79.47 z M 73.391 30.127 c 0.348 1.575 0 3.15 -1.575 3.33 l -2.619 0.519 v 38.495 c -2.274 1.224 -4.368 1.923 -6.117 1.923 c -2.796 0 -3.495 -0.876 -5.589 -3.498 L 40.364 43.95 v 26.07 l 5.418 1.227 c 0 0 0 3.15 -4.371 3.15 L 29.36 75.096 c -0.351 -0.702 0 -2.451 1.221 -2.799 l 3.147 -0.873 V 36.955 l -4.368 -0.354 c -0.351 -1.575 0.522 -3.849 2.97 -4.026 l 12.93 -0.87 l 17.82 27.294 V 34.852 l -4.542 -0.522 c -0.351 -1.929 1.047 -3.33 2.793 -3.501 L 73.391 30.127 L 73.391 30.127 z" style="stroke: none; stroke-width: 1; stroke-dasharray: none; stroke-linecap: butt; stroke-linejoin: miter; stroke-miterlimit: 10; fill: rgb(0,0,0); fill-rule: nonzero; opacity: 1;" transform=" matrix(1 0 0 1 0 0) " stroke-linecap="round" />
</g>
</svg>