<svg version="1.1" id="Layer_1" xmlns="http://www.w3.org/2000/svg" xmlns:xlink="http://www.w3.org/1999/xlink" x="0px" y="0px" viewBox="-235 267 320 80" style="enable-background:new -235 267 320 80;" xml:space="preserve">
 <style type="text/css">
  .st0{fill:#FFFFFF;}
	.st1{fill:#47B972;}
 </style>
 <g id="logo_on_black-alpha">
 </g>
 <g>
  <g id="logo_on_white-alpha">
   <g id="logotype_6_">
    <path id="XMLID_387_" class="st0" d="M-125.4,308.1v13h-5.4V288h12.9c7.7,0,11.8,3.9,11.8,10.1c0,6.2-4.1,10.1-11.8,10.1
				L-125.4,308.1L-125.4,308.1z M-125.4,293v10h7.4c4.3,0,6.3-1.6,6.3-5s-2-5-6.3-5H-125.4z">
    </path>
    <path id="XMLID_384_" class="st0" d="M-81.6,321.1h-5v-2.7c-1.6,2-3.9,3.3-7.1,3.3c-6.3,0-11.3-5-11.3-11.9
				c0-6.9,5-11.9,11.3-11.9c3.2,0,5.6,1.3,7.1,3.3v-2.7h5V321.1z M-100,309.8c0,4,2.6,7.3,6.8,7.3c4.1,0,6.8-3.1,6.8-7.3
				c0-4.1-2.7-7.3-6.8-7.3C-97.4,302.5-100,305.8-100,309.8z">
    </path>
    <path id="XMLID_382_" class="st0" d="M-55.1,306.9v14.3h-5v-12.7c0-3.8-2-5.9-5.3-5.9c-3.2,0-5.9,2.1-5.9,6v12.6h-5v-22.7h4.9
				v2.8c1.8-2.7,4.6-3.4,7-3.4C-58.9,297.9-55.1,301.6-55.1,306.9z">
    </path>
    <path id="XMLID_379_" class="st0" d="M-33.5,301.2V287h5v34.1h-5v-2.7c-1.6,2-3.9,3.3-7.1,3.3c-6.3,0-11.3-5-11.3-11.9
				c0-6.9,5-11.9,11.3-11.9C-37.4,297.9-35,299.2-33.5,301.2z M-46.9,309.8c0,4,2.6,7.3,6.8,7.3c4.1,0,6.8-3.1,6.8-7.3
				c0-4.1-2.7-7.3-6.8-7.3C-44.3,302.5-46.9,305.8-46.9,309.8z">
    </path>
    <path id="XMLID_376_" class="st0" d="M-1.3,321.1h-5v-2.7c-1.6,2-3.9,3.3-7.1,3.3c-6.3,0-11.3-5-11.3-11.9
				c0-6.9,5-11.9,11.3-11.9c3.2,0,5.6,1.3,7.1,3.3v-2.7h5V321.1z M-19.7,309.8c0,4,2.6,7.3,6.8,7.3c4.1,0,6.8-3.1,6.8-7.3
				c0-4.1-2.7-7.3-6.8-7.3C-17.1,302.5-19.7,305.8-19.7,309.8z">
    </path>
    <path id="XMLID_373_" class="st0" d="M17.5,288c10.4,0,17.2,6.6,17.2,16.6s-6.8,16.6-17.2,16.6H4.3V288H17.5z M9.7,293.1v23h7.8
				c7.8,0,11.6-4.8,11.6-11.5c0-6.8-3.8-11.5-11.6-11.5H9.7z">
    </path>
    <path id="XMLID_370_" class="st0" d="M61.7,309.8c0,6.8-5.2,11.9-12.2,11.9s-12.2-5.1-12.2-11.9c0-6.8,5.2-11.9,12.2-11.9
				S61.7,303,61.7,309.8z M42.4,309.8c0,4.3,3.1,7.3,7.1,7.3c4.1,0,7.1-3,7.1-7.3c0-4.3-3.1-7.3-7.1-7.3S42.4,305.5,42.4,309.8z">
    </path>
    <path id="XMLID_368_" class="st0" d="M85,301.5l-3.2,3.4c-1.6-1.5-3.3-2.3-5.4-2.3c-3.8,0-6.7,3-6.7,7.3c0,4.3,2.9,7.3,6.7,7.3
				c2.2,0,4.1-1,5.6-2.4l3.1,3.4c-2.1,2.4-5.1,3.6-8.5,3.6c-7.2,0-11.9-5.1-11.9-11.9c0-6.8,4.7-11.9,11.9-11.9
				C79.9,297.9,83,299.1,85,301.5z">
    </path>
   </g>
   <g id="mark_6_">
    <rect id="XMLID_367_" x="-235" y="267" class="st0" width="80" height="80">
    </rect>
    <path id="XMLID_366_" class="st1" d="M-176.5,284.7v11.8l-0.2,0.1c-1.7-1.4-3.9-2.3-6.7-2.3c-3.6,0-6.9,1.3-9.1,3.9l3.4,3.6
				c1.7-1.6,3.5-2.5,5.8-2.5c4.3,0.1,7.1,3.4,7.1,7.8s-2.9,7.8-7.3,7.8c-11,0-7.9-20.6-22.7-20.6c-7.4,0-12.6,5.5-12.6,12.8v22.3
				h5.3v-11.9l0.2-0.1c1.7,1.4,3.9,2.3,6.7,2.3c3.6,0,6.9-1.3,9.1-3.9l-3.4-3.6c-1.7,1.6-3.5,2.5-5.8,2.5c-4.3-0.1-7.1-3.4-7.1-7.8
				s2.9-7.8,7.3-7.8c11,0,7.9,20.6,22.7,20.6c7.4,0,12.6-5.5,12.6-12.8v-22.2H-176.5z">
    </path>
   </g>
  </g>
  <g id="logo_on_green-alpha">
  </g>
 </g>
</svg>